<?xml version="1.0" encoding="UTF-8" standalone="no"?>
<!-- Created with Inkscape (http://www.inkscape.org/) -->

<svg
   width="114.29967mm"
   height="53.856205mm"
   viewBox="0 0 114.29967 53.856205"
   version="1.1"
   id="svg9703"
   inkscape:version="1.2.1 (9c6d41e, 2022-07-14)"
   sodipodi:docname="finish.svg"
   xmlns:inkscape="http://www.inkscape.org/namespaces/inkscape"
   xmlns:sodipodi="http://sodipodi.sourceforge.net/DTD/sodipodi-0.dtd"
   xmlns="http://www.w3.org/2000/svg"
   xmlns:svg="http://www.w3.org/2000/svg">
  <sodipodi:namedview
     id="namedview9705"
     pagecolor="#ffffff"
     bordercolor="#000000"
     borderopacity="0.25"
     inkscape:showpageshadow="2"
     inkscape:pageopacity="0.0"
     inkscape:pagecheckerboard="0"
     inkscape:deskcolor="#d1d1d1"
     inkscape:document-units="mm"
     showgrid="false"
     inkscape:zoom="0.65169176"
     inkscape:cx="159.58465"
     inkscape:cy="64.447647"
     inkscape:window-width="1309"
     inkscape:window-height="456"
     inkscape:window-x="0"
     inkscape:window-y="38"
     inkscape:window-maximized="0"
     inkscape:current-layer="layer1" />
  <defs
     id="defs9700">
    <clipPath
       id="fa9e9c3a7e">
      <path
         d="M 51.648438,508 H 74 v 34 H 51.648438 Z m 0,0"
         clip-rule="nonzero"
         id="path5103" />
    </clipPath>
    <clipPath
       id="d1f822c9ae">
      <path
         d="m 346,416.47656 h 11 V 469 h -11 z m 0,0"
         clip-rule="nonzero"
         id="path5106" />
    </clipPath>
    <clipPath
       id="794fc2c4d0">
      <path
         d="m 354,434 h 21.64844 v 18 H 354 Z m 0,0"
         clip-rule="nonzero"
         id="path5109" />
    </clipPath>
    <clipPath
       id="364142a80b">
      <path
         d="M 72,467 H 348 V 569.47656 H 72 Z m 0,0"
         clip-rule="nonzero"
         id="path5112" />
    </clipPath>
  </defs>
  <g
     inkscape:label="Layer 1"
     inkscape:groupmode="layer"
     id="layer1"
     transform="translate(-82.540846,-112.76258)">
    <g
       clip-path="url(#fa9e9c3a7e)"
       id="g5231"
       transform="matrix(0.3527778,0,0,0.3527778,64.320423,-34.234424)">
      <path
         fill="#161514"
         d="m 62.402344,525.42969 c -3.753906,0 -6.804688,-3.04297 -6.804688,-6.79688 0,-3.7539 3.050782,-6.80078 6.804688,-6.80078 3.757812,0 6.800781,3.04688 6.800781,6.80078 0,3.75391 -3.042969,6.79688 -6.800781,6.79688 z m 0,-17.26172 c -5.9375,0 -10.753906,4.8125 -10.753906,10.74609 0,1.15235 0.179687,2.25781 0.515624,3.30078 0.136719,0.42188 0.296876,0.83594 0.484376,1.23438 0.210937,0.45703 4.53125,8.16797 4.53125,8.16797 l 5.222656,9.41015 5.21875,-9.41015 c 0,0 4.324218,-7.71094 4.535156,-8.16797 0.1875,-0.39844 0.347656,-0.8125 0.484375,-1.23438 0.335937,-1.04297 0.515625,-2.14843 0.515625,-3.30078 0,-5.93359 -4.816406,-10.74609 -10.753906,-10.74609"
         fill-opacity="1"
         fill-rule="nonzero"
         id="path5229" />
    </g>
    <path
       fill="#161514"
       d="m 88.334113,157.84068 c 0,0.42995 -0.89572,0.77584 -1.99953,0.77584 -1.10381,0 -1.99953,-0.34589 -1.99953,-0.77584 0,-0.42994 0.89572,-0.77721 1.99953,-0.77721 1.10381,0 1.99953,0.34727 1.99953,0.77721"
       fill-opacity="1"
       fill-rule="nonzero"
       id="path5233"
       style="stroke-width:0.352778" />
    <g
       clip-path="url(#d1f822c9ae)"
       id="g5237"
       transform="matrix(0.3527778,0,0,0.3527778,64.320423,-34.234424)">
      <path
         fill="#211d1d"
         d="m 353.38672,416.6875 c -1.46875,-0.13281 -6.21094,3.91797 -6.84375,23.16797 -0.5625,17.17969 0.39844,19.71875 0.8164,23.6914 0.42188,3.96875 0.75391,4.86719 1.2461,4.91407 0.49219,0.0469 0.98437,-0.77735 2.12109,-4.60547 1.14453,-3.82813 2.55078,-6.15235 5.14453,-23.14063 2.91016,-19.03906 -1.01562,-23.89062 -2.48437,-24.02734"
         fill-opacity="1"
         fill-rule="nonzero"
         id="path5235" />
    </g>
    <path
       fill="#211d1d"
       d="m 187.0623,130.42048 -1.5875,0.39412 c -0.12127,0.0303 -0.23702,-0.0675 -0.22462,-0.1943 l 0.0689,-0.74966 c 0.006,-0.0634 0.0441,-0.11851 0.1006,-0.14745 l 1.62471,-0.7965 c 0.12815,-0.0634 0.27422,0.0386 0.2632,0.18052 l -0.10749,1.15342 c -0.007,0.0772 -0.0634,0.14194 -0.1378,0.15985"
       fill-opacity="1"
       fill-rule="nonzero"
       id="path5239"
       style="stroke-width:0.352778" />
    <path
       fill="#211d1d"
       d="m 187.64659,130.47422 1.48828,0.678 c 0.11438,0.0524 0.24667,-0.0234 0.25769,-0.14883 l 0.0689,-0.75103 c 0.006,-0.062 -0.022,-0.12402 -0.073,-0.16123 l -1.45107,-1.08314 c -0.11301,-0.0841 -0.27699,-0.011 -0.2894,0.12954 l -0.10748,1.15479 c -0.007,0.0772 0.0358,0.15021 0.10611,0.1819"
       fill-opacity="1"
       fill-rule="nonzero"
       id="path5241"
       style="stroke-width:0.352778" />
    <path
       fill="#211d1d"
       d="m 186.71228,121.84908 -7.23746,1.55581 c -0.17226,0.0372 -0.33211,-0.10473 -0.31557,-0.27975 l 0.0882,-0.94809 c 0.008,-0.0937 0.0675,-0.17639 0.15297,-0.21497 l 7.39868,-3.29351 c 0.18191,-0.0813 0.38448,0.0634 0.36794,0.26183 l -0.24942,2.68717 c -0.01,0.11438 -0.0937,0.20809 -0.20533,0.23151"
       fill-opacity="1"
       fill-rule="nonzero"
       id="path5243"
       style="stroke-width:0.352778" />
    <path
       fill="#211d1d"
       d="m 184.02924,121.44531 c -0.29904,-0.0276 -0.51952,-0.29214 -0.49334,-0.59255 l 0.11713,-1.25953 c 0.0276,-0.30041 0.29353,-0.5209 0.59394,-0.49333 0.29903,0.0275 0.5209,0.29352 0.49334,0.59393 l -0.11714,1.25953 c -0.0276,0.29903 -0.29352,0.5209 -0.59393,0.49195"
       fill-opacity="1"
       fill-rule="nonzero"
       id="path5245"
       style="stroke-width:0.352778" />
    <g
       clip-path="url(#794fc2c4d0)"
       id="g5249"
       transform="matrix(0.3527778,0,0,0.3527778,64.320423,-34.234424)">
      <path
         fill="#211d1d"
         d="m 355.01172,443.1875 19.35937,8.08594 c 0.46485,0.1914 0.98047,-0.11719 1.02344,-0.61328 l 0.25,-2.69141 c 0.0234,-0.26563 -0.0937,-0.52734 -0.31641,-0.67578 l -18.91015,-13.01953 c -0.46485,-0.31641 -1.10156,-0.0195 -1.15625,0.54297 l -0.70313,7.61718 c -0.0273,0.32422 0.15235,0.62891 0.45313,0.75391"
         fill-opacity="1"
         fill-rule="nonzero"
         id="path5247" />
    </g>
    <path
       fill="#211d1d"
       d="m 192.27128,122.20599 c 0.30041,0.0276 0.565,-0.19292 0.59394,-0.49196 l 0.11575,-1.2609 c 0.0276,-0.29903 -0.19292,-0.56637 -0.49196,-0.59256 -0.30041,-0.0275 -0.56637,0.19293 -0.59393,0.49196 l -0.11714,1.25953 c -0.0275,0.30041 0.19431,0.56637 0.49334,0.59393"
       fill-opacity="1"
       fill-rule="nonzero"
       id="path5251"
       style="stroke-width:0.352778" />
    <g
       clip-path="url(#364142a80b)"
       id="g5255"
       transform="matrix(0.3527778,0,0,0.3527778,64.320423,-34.234424)">
      <path
         fill="#211d1d"
         d="m 260.79297,470.11719 c -1.08594,-0.1211 -2.19531,-0.17969 -3.30078,-0.17969 h -0.25782 l -0.0195,-2.15234 h 0.27735 c 1.18359,0 2.37109,0.0664 3.53515,0.1914 z m -10.62891,0.70312 -0.51172,-2.08984 c 1.23047,-0.30078 2.49219,-0.53516 3.75391,-0.69531 l 0.26562,2.14062 c -1.17578,0.14844 -2.35546,0.36328 -3.50781,0.64453 z m 17.53125,0.9375 c -1.09375,-0.41406 -2.23437,-0.76172 -3.39844,-1.03515 l 0.4961,-2.09766 c 1.25,0.29687 2.48437,0.67187 3.66406,1.12109 z m -24.1914,1.55469 -0.99219,-1.90625 c 1.11719,-0.58594 2.29297,-1.10938 3.49219,-1.55469 l 0.7539,2.01953 c -1.11719,0.41407 -2.21484,0.89844 -3.2539,1.44141 z m 30.38281,1.83594 c -0.92969,-0.70313 -1.9336,-1.34375 -2.97266,-1.91016 l 1.03516,-1.89062 c 1.1289,0.61718 2.21875,1.3164 3.23437,2.07812 z m 73.13281,2.1289 -2.08984,-0.53906 c 0.30468,-1.17187 0.58203,-2.36328 0.82422,-3.53906 l 2.10546,0.42969 c -0.24609,1.21484 -0.53125,2.4414 -0.83984,3.64843 z m -109.32031,0.0899 -1.46094,-1.58594 c 0.92969,-0.85547 1.9375,-1.66406 2.99219,-2.40234 l 1.23437,1.76953 c -0.98047,0.67968 -1.90625,1.42578 -2.76562,2.21875 z m 41.13281,2.79297 c -0.69922,-0.95313 -1.46875,-1.86329 -2.28516,-2.69141 l 1.53516,-1.51172 c 0.88672,0.90625 1.72656,1.89063 2.48828,2.93359 z m -45.62891,2.66015 -1.83203,-1.13281 c 0.67578,-1.08984 1.42578,-2.14063 2.23047,-3.11719 l 1.66406,1.36719 c -0.74218,0.90234 -1.4375,1.875 -2.0625,2.88281 z m 111.58985,1.60547 -2.02735,-0.74219 c 0.41797,-1.13672 0.8125,-2.29687 1.17188,-3.44531 l 2.05469,0.64063 c -0.36719,1.18359 -0.77344,2.375 -1.19922,3.54687 z m -62.58203,1.95703 c -0.42969,-1.11328 -0.92969,-2.19922 -1.48438,-3.22656 l 1.89453,-1.02344 c 0.60157,1.10938 1.14063,2.27735 1.60157,3.47656 z m -51.95313,2.89844 -2.05078,-0.64844 c 0.38281,-1.22265 0.84375,-2.42187 1.36328,-3.5664 l 1.96094,0.88671 c -0.48438,1.07032 -0.91406,2.19141 -1.27344,3.32813 z m 111.6211,2.03906 -1.94532,-0.93359 c 0.52735,-1.08985 1.03125,-2.20703 1.5,-3.31641 l 1.98438,0.83985 c -0.48438,1.14062 -1.00391,2.28906 -1.53906,3.41015 z m -57.94922,1.95313 c -0.14844,-1.17578 -0.36719,-2.35547 -0.65235,-3.5 l 2.09375,-0.51563 c 0.30469,1.22656 0.53907,2.49219 0.69532,3.75 z m -55.02344,3 -2.14844,-0.16797 c 0.10156,-1.26953 0.26953,-2.53906 0.51172,-3.77735 l 2.11719,0.40625 c -0.22656,1.16016 -0.38672,2.35157 -0.48047,3.53907 z m 109.41016,1.6289 -1.84766,-1.11328 c 0.625,-1.03125 1.23047,-2.09375 1.8125,-3.16015 l 1.89453,1.02343 c -0.59375,1.09766 -1.22266,2.19141 -1.85937,3.25 z m -52.25,2.73828 -2.13672,-0.26562 c 0.14453,-1.15625 0.21484,-2.34375 0.21484,-3.53125 l 2.15625,-0.0195 c 0,1.29687 -0.0781,2.57422 -0.23437,3.8164 z m -59.07422,3.0625 c -0.17578,-1.24609 -0.28516,-2.52343 -0.32422,-3.78906 l 2.15625,-0.0664 c 0.0312,1.18359 0.13672,2.38281 0.30469,3.55859 z m 107.14453,0.41407 -1.73047,-1.28907 c 0.72266,-0.96484 1.42969,-1.96484 2.10547,-2.97265 l 1.78906,1.20312 c -0.69922,1.03516 -1.42578,2.0625 -2.16406,3.0586 z m -50.00781,3.92187 -1.99219,-0.82422 c 0.44531,-1.07422 0.82422,-2.20312 1.125,-3.35547 l 2.08594,0.54297 c -0.32422,1.2461 -0.73829,2.47266 -1.21875,3.63672 z m 45.25,1.85938 -1.59375,-1.44922 c 0.80859,-0.89453 1.60937,-1.82031 2.3789,-2.75391 l 1.66406,1.36719 c -0.78906,0.96094 -1.61328,1.91406 -2.44921,2.83594 z m -100.47657,1.17968 c -0.45312,-1.17968 -0.84375,-2.39843 -1.16015,-3.63671 l 2.08203,-0.53516 c 0.29687,1.15234 0.66406,2.29297 1.08594,3.39453 z m 51.25391,3.53907 -1.65234,-1.38282 c 0.74609,-0.89453 1.43359,-1.85937 2.04296,-2.86718 l 1.84766,1.10937 c -0.66406,1.10547 -1.41797,2.16016 -2.23828,3.14063 z m 43.92187,0.57031 -1.44531,-1.60156 c 0.89453,-0.80469 1.78125,-1.64453 2.64063,-2.50391 l 1.51953,1.52344 c -0.88281,0.88281 -1.79688,1.75 -2.71485,2.58203 z m -136.61328,2.11719 -0.17187,-2.14844 c 1.22265,-0.0977 2.48437,-0.16016 3.75,-0.1875 l 0.0469,2.15234 c -1.22265,0.0274 -2.44531,0.0899 -3.625,0.1836 z m 10.90235,0.0234 c -1.23047,-0.0898 -2.45313,-0.15625 -3.63672,-0.1914 l 0.0625,-2.15235 c 1.21484,0.0391 2.47265,0.10157 3.73828,0.19532 z m 34.12109,0.48047 c -0.72656,-1.03125 -1.39844,-2.1289 -2,-3.25781 l 1.89844,-1.01172 c 0.5625,1.05078 1.1875,2.07031 1.86719,3.02735 z m -26.86328,0.35157 c -1.23047,-0.1875 -2.44531,-0.34766 -3.625,-0.48438 l 0.25,-2.13672 c 1.19922,0.13672 2.44141,0.30469 3.69531,0.49219 z m -25.32813,0.17187 -0.44921,-2.10937 c 1.20703,-0.25391 2.45703,-0.48047 3.71093,-0.65625 l 0.30078,2.13281 c -1.20312,0.16797 -2.40234,0.38672 -3.5625,0.63281 z m 32.53907,1.13281 c -1.22657,-0.2539 -2.4375,-0.49218 -3.59766,-0.69922 l 0.38281,-2.12109 c 1.1836,0.21094 2.41016,0.45313 3.65625,0.71094 z m 61.64843,0.28907 -1.22265,-1.76954 c 0.98047,-0.67968 1.91797,-1.42187 2.78125,-2.20312 l 1.44531,1.59766 c -0.93359,0.84375 -1.94141,1.64062 -3.00391,2.375 z m 43.78907,0.16796 L 317,518.18359 c 0.48047,-0.35156 0.96094,-0.71484 1.43359,-1.07812 0.48047,-0.3711 0.96485,-0.75781 1.44141,-1.14844 l 1.36328,1.66797 c -0.49219,0.40234 -0.99219,0.80078 -1.48828,1.18359 -0.48438,0.375 -0.98047,0.75 -1.47656,1.11328 z m -144.88672,0.44141 -0.78516,-2.00391 c 1.02735,-0.40234 2.07813,-0.76562 3.1211,-1.07812 0.15625,-0.0469 0.3125,-0.0937 0.46875,-0.14063 l 0.60156,2.07032 c -0.14844,0.043 -0.29688,0.0859 -0.44922,0.13281 -0.98828,0.29687 -1.98438,0.64062 -2.95703,1.01953 z M 220,521.10547 c -1.36328,-0.33203 -2.5,-0.60156 -3.58203,-0.84766 l 0.48437,-2.10156 c 1.08985,0.25391 2.23438,0.52734 3.60938,0.85937 z m 7.17578,1.76953 c -1.19922,-0.28906 -2.39844,-0.58984 -3.59375,-0.88672 l 0.51953,-2.08594 c 1.19141,0.29297 2.39063,0.58985 3.58203,0.87891 z m 40.59375,0.45703 -0.80078,-1.99609 c 1.12109,-0.44922 2.21484,-0.95313 3.24609,-1.5 l 1.00782,1.90234 c -1.09766,0.58203 -2.25782,1.11719 -3.45313,1.59375 z m -30.16406,0.125 c -0.95703,-0.84375 -1.8711,-1.74219 -2.71485,-2.67187 l 1.59375,-1.44922 c 0.78907,0.87109 1.64844,1.71093 2.54688,2.5039 z m -70.66406,0.0937 -1.125,-1.83984 c 1.07421,-0.65235 2.1914,-1.26953 3.32031,-1.82422 l 0.95312,1.92969 c -1.07031,0.53125 -2.13281,1.11328 -3.14843,1.73437 z m 145.08203,0.49609 -1.09766,-1.85546 c 1.04297,-0.61719 2.07813,-1.26563 3.08594,-1.92969 l 1.1875,1.80078 c -1.03516,0.68359 -2.10547,1.35156 -3.17578,1.98437 z m -77.60547,0.46875 c -1.14844,-0.23437 -2.33594,-0.49218 -3.63281,-0.78906 l 0.48046,-2.09765 c 1.27735,0.29296 2.45313,0.54687 3.58594,0.78125 z m 26.08594,0.96094 -0.42188,-2.11328 c 1.1875,-0.23828 2.36328,-0.52734 3.49609,-0.85547 l 0.60157,2.06641 c -1.1836,0.34765 -2.42188,0.65234 -3.67578,0.90234 z m -7.49219,0.89844 -0.0937,-2.14844 c 1.20703,-0.0586 2.41797,-0.15625 3.59765,-0.29687 l 0.25391,2.14062 c -1.23047,0.14844 -2.49609,0.25 -3.75781,0.30469 z m -3.76953,0.0312 c -0.13672,-0.004 -0.26953,-0.008 -0.40235,-0.0117 -1.08593,-0.0391 -2.21484,-0.10547 -3.34765,-0.20312 l 0.18359,-2.14454 c 1.09766,0.0937 2.18359,0.16016 3.24219,0.19532 0.125,0.004 0.2539,0.008 0.3789,0.0117 z m 56.15234,1.125 -0.91016,-1.95313 c 1.09766,-0.50781 2.19532,-1.05078 3.26172,-1.61718 l 1.00391,1.91015 c -1.09766,0.57813 -2.22656,1.13282 -3.35547,1.66016 z m -144.23047,0.28906 -1.43359,-1.60156 c 0.93359,-0.83594 1.92187,-1.64063 2.9414,-2.39453 l 1.28125,1.73437 c -0.96484,0.71094 -1.90625,1.47657 -2.78906,2.26172 z m 82.61328,0.043 c -1.10156,-0.64062 -2.17968,-1.32812 -3.1875,-2.04687 l 0.125,-0.17579 c -0.85937,-0.1289 -1.74218,-0.26953 -2.63672,-0.42578 l 0.36719,-2.12109 c 1.23828,0.21484 2.45313,0.40234 3.60938,0.55469 l -0.0703,0.51562 c 0.91407,0.64453 1.87891,1.26172 2.875,1.83203 z m -103.82031,0.73828 c -1.10547,-0.0312 -2.23047,-0.0469 -3.34375,-0.0469 h -0.3125 l -0.008,-2.15235 h 0.32031 c 1.13672,0 2.28125,0.0195 3.40625,0.0508 z m -10.97656,0.19922 -0.13672,-2.14844 c 1.23437,-0.082 2.48828,-0.14062 3.72266,-0.18359 l 0.0703,2.15234 c -1.21094,0.043 -2.44141,0.10157 -3.65625,0.17969 z m 18.27734,0.24219 c -0.44922,-0.043 -0.89453,-0.082 -1.34375,-0.11719 -0.76172,-0.0625 -1.53515,-0.11328 -2.30078,-0.16406 l 0.12891,-2.14453 c 0.78125,0.0469 1.5664,0.10156 2.34375,0.16406 0.45703,0.0391 0.91797,0.0742 1.375,0.11719 z m -25.5625,0.45312 -0.26953,-2.13281 c 1.23047,-0.16016 2.47266,-0.29687 3.69922,-0.41016 l 0.20703,2.14063 c -1.20703,0.11719 -2.42969,0.25 -3.63672,0.40234 z m 32.77344,0.54688 c -1.13672,-0.21875 -2.34375,-0.41797 -3.58203,-0.58594 l 0.28906,-2.13281 c 1.28125,0.17578 2.52734,0.3789 3.70703,0.60547 z m 143.99219,0.3164 -0.71875,-2.03125 c 1.14062,-0.40234 2.28906,-0.83593 3.40625,-1.29296 l 0.8125,1.99218 c -1.14844,0.46875 -2.32813,0.91407 -3.5,1.33203 z m -183.9961,0.27735 -0.40234,-2.11719 c 1.21484,-0.23047 2.45313,-0.44141 3.67188,-0.63672 l 0.33593,2.12891 c -1.20312,0.1914 -2.41406,0.39844 -3.60547,0.625 z m 136.15625,0.43359 c -1.1914,-0.44922 -2.36328,-0.9375 -3.48047,-1.46094 l 0.91016,-1.95312 c 1.07031,0.5 2.1875,0.96875 3.32422,1.39844 z m -143.30859,1.14063 -0.52734,-2.08985 c 1.19922,-0.30078 2.42187,-0.58984 3.6289,-0.85547 l 0.46094,2.10157 c -1.1875,0.26172 -2.38672,0.54687 -3.5625,0.84375 z m 183.97656,0.29687 -0.51953,-2.08984 c 1.16797,-0.29297 2.35156,-0.61328 3.51172,-0.96094 l 0.62109,2.0625 c -1.19531,0.35547 -2.41015,0.6875 -3.61328,0.98828 z m -134.95703,0.58594 -1.73047,-1.28125 c 0.7461,-1.00391 1.5586,-1.98828 2.42578,-2.93359 l 1.20313,1.10546 0.32031,-1.20703 c 1.25,0.33203 2.46484,0.71094 3.61328,1.125 l -0.73047,2.02344 c -1.05468,-0.375 -2.16797,-0.72656 -3.3164,-1.03906 -0.63282,0.71484 -1.23047,1.45703 -1.78516,2.20703 z m 101.50781,0.11328 c -1.23437,-0.27734 -2.46093,-0.59375 -3.64062,-0.94141 l 0.60547,-2.0664 c 1.14062,0.33594 2.32031,0.64062 3.51172,0.90625 z m 26.10157,0.75391 -0.31641,-2.12891 c 1.19141,-0.17969 2.40234,-0.38672 3.58594,-0.62109 l 0.42187,2.11328 c -1.22265,0.23828 -2.46484,0.45312 -3.6914,0.63672 z m -183.67188,0.25 -0.652342,-2.05078 c 1.179692,-0.375 2.378902,-0.73438 3.570312,-1.07422 l 0.58984,2.07422 c -1.17187,0.33203 -2.34765,0.68359 -3.50781,1.05078 z m 164.98828,0.19922 c -1.25,-0.12891 -2.50781,-0.29297 -3.72656,-0.49219 l 0.34766,-2.125 c 1.17578,0.1914 2.38671,0.35156 3.59765,0.47265 z m 11.22656,0.28515 -0.10156,-2.14844 c 1.20313,-0.0625 2.42188,-0.14843 3.62891,-0.26953 l 0.21094,2.14453 c -1.24219,0.1211 -2.4961,0.21485 -3.73829,0.27344 z m -3.74218,0.0937 c -1.2461,0 -2.50391,-0.0312 -3.7461,-0.0937 l 0.10938,-2.15234 c 1.20312,0.0625 2.42969,0.0898 3.63672,0.0898 z M 167.875,535.01172 c -0.31641,-0.19922 -0.64063,-0.39063 -0.96875,-0.57813 -0.69141,-0.39453 -1.41797,-0.77734 -2.16016,-1.1289 l 0.92578,-1.94922 c 0.79297,0.3789 1.57032,0.78515 2.3086,1.21094 0.34765,0.19921 0.69922,0.41015 1.04297,0.62109 z m -74.507812,1.6289 -0.777344,-2.01171 c 1.148437,-0.44141 2.328125,-0.875 3.492187,-1.28516 l 0.714844,2.02734 c -1.148437,0.40625 -2.300781,0.83203 -3.429687,1.26953 z m 59.417972,2.61329 -1.98047,-0.84375 c 0.48828,-1.15235 1.0625,-2.30469 1.70312,-3.41797 l 1.86719,1.07812 c -0.59766,1.03906 -1.13281,2.10547 -1.58984,3.1836 z m -66.164066,0.23046 -0.898438,-1.95703 c 1.121094,-0.51562 2.265625,-1.01953 3.410156,-1.5039 l 0.839844,1.98828 c -1.125,0.46875 -2.25,0.96484 -3.351562,1.47265 z m 86.707026,0.043 c -0.78906,-0.85547 -1.65625,-1.67578 -2.57421,-2.4375 l 1.37109,-1.65625 c 0.99609,0.81641 1.92969,1.70703 2.78906,2.63282 z m -93.26562,3.20703 -1.015625,-1.89843 c 1.085937,-0.58203 2.199219,-1.15235 3.3125,-1.70703 l 0.957031,1.92968 c -1.089844,0.53907 -2.1875,1.10547 -3.253906,1.67578 z m 97.20312,2.60547 c -0.48046,-1.03515 -1.0664,-2.0625 -1.73437,-3.05078 l 1.78125,-1.21094 c 0.73437,1.08204 1.37891,2.21485 1.91016,3.35938 z m -26.35937,0.73047 -2.13281,-0.28515 c 0.16406,-1.25782 0.42578,-2.52344 0.76562,-3.75782 l 2.07813,0.57422 c -0.3125,1.14063 -0.55469,2.30469 -0.71094,3.46875 z m -77.179688,0.32422 -1.136718,-1.83203 c 1.050781,-0.65234 2.128906,-1.29688 3.199218,-1.91406 l 1.078126,1.86718 c -1.050782,0.60157 -2.109376,1.23438 -3.140626,1.87891 z m 105.222658,5.65234 c -0.0117,-0.30859 -0.0352,-0.62109 -0.0664,-0.92578 -0.0859,-0.83203 -0.23437,-1.67187 -0.44531,-2.49609 l 2.08984,-0.53125 c 0.23438,0.92578 0.40235,1.87109 0.5,2.80469 0.0352,0.35156 0.0625,0.71093 0.0742,1.0625 z m -30.0625,1.41797 c -0.21485,-1.25 -0.32813,-2.54297 -0.34766,-3.83984 l 2.15625,-0.0273 c 0.0156,1.18359 0.1211,2.36718 0.3125,3.50781 z m 30.79297,6.16016 -1.98828,-0.83594 c 0.44921,-1.0664 0.78515,-2.17969 1,-3.30859 l 2.11718,0.39844 c -0.24218,1.27734 -0.625,2.53906 -1.1289,3.74609 z m -28.21485,1.12109 c -0.64062,-1.09765 -1.18359,-2.28906 -1.62109,-3.53515 L 151.87891,556.5 c 0.39062,1.12109 0.875,2.1875 1.44921,3.16406 z m 23.67969,5.23828 -1.41406,-1.62109 c 0.84375,-0.73828 1.61328,-1.59375 2.28906,-2.55469 l 1.76172,1.2461 c -0.77734,1.09375 -1.66406,2.08203 -2.63672,2.92968 z m -18.40625,0.50782 c -1.08594,-0.75391 -2.08203,-1.6211 -2.96484,-2.58203 l 1.58984,-1.45313 c 0.76953,0.84375 1.64844,1.60156 2.60156,2.25781 z M 168,569.33203 l -0.30859,-2.13281 c 0.27734,-0.0391 0.55468,-0.0937 0.83203,-0.15625 0.8164,-0.17969 1.61328,-0.45313 2.3789,-0.81641 l 0.92188,1.94141 c -0.90625,0.43359 -1.85938,0.76562 -2.83203,0.98047 -0.32813,0.0703 -0.66016,0.13281 -0.99219,0.18359 z m -3.98047,0.0156 c -1.28516,-0.17188 -2.57031,-0.50782 -3.82031,-1.00391 l 0.79687,-2.00391 c 1.08594,0.4336 2.19922,0.72657 3.3086,0.8711 l -0.28516,2.13672"
         fill-opacity="1"
         fill-rule="nonzero"
         id="path5253" />
    </g>
  </g>
</svg>
