<?xml version="1.0" encoding="UTF-8" standalone="no"?>
<!-- Created with Inkscape (http://www.inkscape.org/) -->

<svg
   width="4.9200568mm"
   height="2.3789999mm"
   viewBox="0 0 4.9200568 2.3789999"
   version="1.1"
   id="svg5827"
   inkscape:version="1.2.1 (9c6d41e, 2022-07-14)"
   sodipodi:docname="rsvp.png"
   inkscape:export-filename="rsvp.svg"
   inkscape:export-xdpi="1366.52"
   inkscape:export-ydpi="1366.52"
   inkscape:dataloss="true"
   xmlns:inkscape="http://www.inkscape.org/namespaces/inkscape"
   xmlns:sodipodi="http://sodipodi.sourceforge.net/DTD/sodipodi-0.dtd"
   xmlns="http://www.w3.org/2000/svg"
   xmlns:svg="http://www.w3.org/2000/svg">
  <sodipodi:namedview
     id="namedview5829"
     pagecolor="#ffffff"
     bordercolor="#000000"
     borderopacity="0.25"
     inkscape:showpageshadow="2"
     inkscape:pageopacity="0.0"
     inkscape:pagecheckerboard="0"
     inkscape:deskcolor="#d1d1d1"
     inkscape:document-units="mm"
     showgrid="false"
     inkscape:zoom="23.756066"
     inkscape:cx="5.1986722"
     inkscape:cy="4.1673567"
     inkscape:window-width="1512"
     inkscape:window-height="916"
     inkscape:window-x="0"
     inkscape:window-y="38"
     inkscape:window-maximized="1"
     inkscape:current-layer="layer1" />
  <defs
     id="defs5824" />
  <g
     inkscape:label="Layer 1"
     inkscape:groupmode="layer"
     id="layer1"
     transform="translate(-36.5789,-149.12495)">
    <path
       id="rect6128"
       style="fill:#fffcf9;stroke-width:0.719139;stroke-linecap:round;stroke-linejoin:round;stroke-miterlimit:3"
       d="m 36.578957,149.12495 h 4.92 v 2.379 h -4.92 z" />
    <g
       aria-label="rsvp"
       id="text5950"
       style="font-size:4.23333px;font-family:'Cormorant SC';-inkscape-font-specification:'Cormorant SC';text-align:center;text-anchor:middle;fill:#fffcf9;stroke-width:0.3;stroke-linecap:round;stroke-linejoin:round;stroke-miterlimit:3">
      <path
         d="m 36.917955,149.57764 0.0041,0.002 0.03101,-0.0351 q 0.09508,-0.12196 0.130225,-0.21084 0.01654,-0.0393 0.01654,-0.0661 0,-0.0165 -0.0062,-0.0269 -0.0041,-0.0124 -0.02274,-0.0186 -0.0186,-0.008 -0.04754,-0.008 -0.101285,0.008 -0.152962,0.10128 -0.02687,0.0496 -0.03307,0.10336 -0.0021,0.0186 -0.0021,0.0331 0,0.0372 0.0124,0.0641 0.0186,0.0372 0.07028,0.062 z m 1.236099,0.25218 h 0.0021 q 0.0083,0 0.03101,0.031 0.02067,0.0269 0.02067,0.0372 0,0.002 -0.0021,0.004 -0.06201,0.0455 -0.14056,0.10955 l -0.272851,0.23978 -0.138493,0.11989 q -0.171565,0.14676 -0.28732,0.23151 -0.08682,0.062 -0.157097,0.10128 -0.05374,0.031 -0.08682,0.0434 -0.05581,0.0207 -0.101286,0.0248 l -0.0041,-0.002 -0.0021,0.002 q -0.04754,-0.002 -0.08062,-0.0103 -0.04548,-0.0124 -0.08062,-0.0413 -0.03721,-0.031 -0.05168,-0.0786 -0.01034,-0.0372 -0.01034,-0.0847 0.0041,-0.0682 0.02687,-0.14262 0.0083,-0.031 0.02067,-0.0641 l 0.02274,-0.062 q 0.05581,-0.1385 0.132292,-0.28112 l 0.0021,-0.004 q 0.0186,-0.0351 0.04134,-0.0744 l 0.0041,-0.008 q 0.02274,-0.0455 0.03514,-0.0827 0.0124,-0.0393 0.0124,-0.0661 v -0.0124 q -0.0041,-0.0269 -0.02274,-0.0372 -0.02274,-0.0103 -0.06201,-0.0207 l -0.05788,-0.0186 q -0.142627,0.15709 -0.316259,0.28318 h -0.0021 q -0.0062,0 -0.02894,-0.031 -0.02067,-0.031 -0.02067,-0.0393 v -0.002 q 0.152963,-0.10956 0.28112,-0.24598 -0.06408,-0.0372 -0.09095,-0.093 -0.02274,-0.0455 -0.02274,-0.10128 0,-0.0227 0.0041,-0.0476 0.0083,-0.0703 0.04341,-0.13436 0.03721,-0.0682 0.09922,-0.10542 0.05788,-0.0372 0.128157,-0.0413 h 0.01447 l 0.0021,0.002 q 0.03514,0.002 0.06408,0.0124 0.05168,0.0186 0.07235,0.0641 0.0124,0.0269 0.0124,0.06 0,0.0145 -0.0021,0.0289 -0.0041,0.0372 -0.0186,0.0724 -0.04134,0.10129 -0.144694,0.23358 l -0.01033,0.0124 0.04961,0.0165 0.03307,0.0103 0.01034,0.004 q 0.03101,0.0145 0.05374,0.031 0.03514,0.0248 0.05374,0.062 l 0.0124,0.0269 0.0021,0.002 0.0041,0.0145 q 0.0021,0.006 0.0021,0.0103 0.0021,0.008 0.0021,0.0186 l -0.0021,0.0145 q -0.0021,0.0248 -0.0062,0.0537 -0.01447,0.0661 -0.04961,0.12816 -0.01447,0.0269 -0.04134,0.0682 l -0.02274,0.0372 -0.02687,0.0413 q -0.06821,0.10956 -0.111621,0.19017 -0.03307,0.0641 -0.05168,0.10956 -0.02481,0.062 -0.03101,0.11368 -0.0021,0.0103 -0.0021,0.0207 0,0.0455 0.0248,0.0703 0.03101,0.0289 0.103353,0.0289 0.03101,-0.002 0.07441,-0.0186 0.02687,-0.0103 0.07648,-0.0372 0.06408,-0.0372 0.146761,-0.0971 0.111621,-0.0806 0.28112,-0.22531 l 0.138492,-0.11989 0.204639,-0.17983 0.07028,-0.0599 q 0.07855,-0.0661 0.144694,-0.11575 z"
         style="font-family:Bellisia;-inkscape-font-specification:Bellisia;fill:#000000"
         id="path10633" />
      <path
         d="m 38.073439,150.48714 q 0.03101,-0.0331 0.04341,-0.0827 l -0.01034,0.002 q -0.05788,0.0165 -0.08888,0.0269 -0.04961,0.0186 -0.06821,0.0372 -0.01034,0.0103 -0.01447,0.0227 -0.0021,0.006 -0.0021,0.0124 0,0.006 0.0021,0.0124 0.0021,0.0103 0.0083,0.0165 0.0062,0.004 0.01654,0.006 0.07028,-0.004 0.113688,-0.0537 z m 0.227376,-0.8909 -0.0186,0.0186 q -0.01033,0.0103 -0.02067,0.0227 -0.02481,0.0331 -0.04341,0.0806 -0.0186,0.0517 -0.02274,0.11369 0.07855,-0.062 0.124023,-0.10336 0.06821,-0.0641 0.07235,-0.10955 0.0021,-0.008 0.0021,-0.0165 0,-0.0186 -0.0083,-0.0289 -0.0083,-0.0103 -0.02894,-0.0124 -0.0062,0 -0.01447,0.006 l -0.0062,0.004 -0.0083,0.006 q -0.0124,0.008 -0.02687,0.0186 z m 0.923974,0.22945 q 0,-0.002 0.0021,-0.002 0.0021,0 0.01034,0.008 0.01033,0.008 0.02067,0.0227 0.01034,0.0145 0.01447,0.0269 0.0041,0.008 0.0041,0.0103 0,0.004 -0.0021,0.004 -0.40721,0.27906 -0.791682,0.40721 -0.09095,0.031 -0.229444,0.0661 l -0.0083,0.031 q -0.03101,0.10335 -0.10542,0.16329 -0.07648,0.062 -0.179833,0.0662 h -0.0021 q -0.03927,-0.004 -0.06821,-0.0269 -0.03101,-0.0227 -0.04134,-0.0641 -0.0021,-0.0145 -0.0021,-0.031 0,-0.0186 0.0041,-0.0393 0.0083,-0.0351 0.03721,-0.0599 0.02067,-0.0207 0.04961,-0.0351 0.0186,-0.0103 0.04961,-0.0227 0.03514,-0.0124 0.09715,-0.0289 l 0.04134,-0.0103 v -0.0145 q -0.0021,-0.031 -0.01033,-0.0682 -0.0062,-0.0248 -0.02274,-0.0724 l -0.0124,-0.0393 -0.01034,-0.0413 q -0.03101,-0.11162 -0.03101,-0.19637 v -0.0269 q 0.0041,-0.0971 0.03927,-0.1757 0.02687,-0.0682 0.07028,-0.11576 0.03514,-0.0372 0.07648,-0.0599 0.03101,-0.0165 0.05788,-0.0248 0.02067,-0.004 0.03927,-0.004 0.0041,-0.002 0.0083,-0.002 0.0041,0 0.0083,0.002 h 0.01033 q 0.03101,0 0.05581,0.0103 0.03101,0.0103 0.04961,0.0372 0.02067,0.0248 0.0248,0.0558 0.0021,0.0124 0.0021,0.0269 0,0.0145 -0.0021,0.0289 -0.0062,0.0475 -0.03721,0.093 -0.02067,0.0289 -0.06201,0.0661 -0.03927,0.0372 -0.08888,0.0785 l -0.09095,0.0724 q 0.0083,0.0455 0.02481,0.10542 l 0.02067,0.0785 q 0.0124,0.0475 0.01654,0.0889 0.0021,0.0289 0.0021,0.062 0.111621,-0.031 0.192236,-0.0579 0.370003,-0.12196 0.768945,-0.39274 z"
         style="font-family:Bellisia;-inkscape-font-specification:Bellisia;fill:#000000"
         id="path10635" />
      <path
         d="m 39.801497,149.743 q -0.0124,0.0372 -0.0124,0.0765 0,0.0227 0.0041,0.0455 0.04341,-0.0496 0.07855,-0.0971 0.04547,-0.0599 0.06408,-0.10129 0.0041,-0.0103 0.01033,-0.0248 l 0.0021,-0.006 v -0.004 h -0.02481 l -0.02274,0.006 q -0.02481,0.008 -0.04341,0.0227 -0.03721,0.0289 -0.05581,0.0827 z m 0.42788,0.0889 h 0.0041 q 0.01034,0 0.03307,0.0269 0.02067,0.0248 0.02067,0.0372 0,0.004 -0.0021,0.006 -0.117822,0.0909 -0.233577,0.13435 -0.07235,0.0269 -0.132292,0.0269 h -0.0083 q -0.07855,0 -0.134359,-0.0496 l -0.0041,0.004 q -0.09508,0.0992 -0.190169,0.17984 -0.05581,0.0475 -0.103353,0.0806 -0.03101,0.0227 -0.05788,0.0372 -0.0186,0.0103 -0.03307,0.0165 l -0.0186,0.006 q -0.0124,0.004 -0.0248,0.006 -0.0041,0 -0.0083,-0.002 -0.01447,0 -0.0248,-0.006 -0.01654,-0.0103 -0.02687,-0.0227 l -0.0083,-0.0186 -0.0062,-0.0186 q -0.0041,-0.0103 -0.0062,-0.0372 l 0.0021,-0.0165 0.0021,-0.0186 0.0062,-0.031 q 0.01034,-0.0413 0.03307,-0.0951 0.01447,-0.031 0.03514,-0.0724 0.02687,-0.0496 0.06614,-0.11162 0.0124,-0.0186 0.02481,-0.0393 l 0.0124,-0.0186 0.01034,-0.0165 q 0.0248,-0.0372 0.03514,-0.0537 -0.05374,0.0186 -0.11989,0.06 -0.07441,0.0475 -0.19637,0.14262 -0.0041,0 -0.02894,-0.031 -0.0248,-0.031 -0.0248,-0.0372 0.124023,-0.0992 0.202571,-0.14883 0.144694,-0.0889 0.252181,-0.093 0.0021,0 0.0021,0.004 0.0021,-0.002 0.0041,-0.002 v 0.002 q 0.01447,0.006 0.02274,0.0186 l 0.0062,0.006 0.0041,0.0124 q 0.0021,0.0103 0.0041,0.0248 0,0.0393 -0.0186,0.0951 -0.01654,0.0538 -0.06408,0.14676 l -0.0124,0.0248 -0.01447,0.0248 q -0.01447,0.031 -0.02894,0.0579 -0.0186,0.0393 -0.02894,0.0661 -0.01654,0.0393 -0.02274,0.0661 0.04134,-0.0289 0.09715,-0.0765 0.09095,-0.0765 0.1819,-0.17156 l 0.01654,-0.0186 q -0.01654,-0.0351 -0.02067,-0.0785 -0.0021,-0.0207 -0.0021,-0.0434 0,-0.0496 0.01654,-0.10129 0.0248,-0.0785 0.08475,-0.12609 0.02894,-0.0227 0.07028,-0.0372 0.01654,-0.004 0.03927,-0.008 h 0.0083 l 0.01034,-0.002 h 0.02067 q 0.01447,0 0.03101,0.006 0.01654,0.004 0.02687,0.0145 0.02274,0.0207 0.02687,0.0537 0,0.0145 -0.0021,0.0289 l -0.0021,0.0124 -0.0041,0.0103 q -0.0062,0.0207 -0.0124,0.0351 -0.02481,0.0475 -0.07235,0.11575 -0.04754,0.062 -0.107487,0.13023 0.02894,0.0248 0.07648,0.0269 0.04548,0 0.107487,-0.0227 0.103353,-0.0372 0.208772,-0.12195 z"
         style="font-family:Bellisia;-inkscape-font-specification:Bellisia;fill:#000000"
         id="path10637" />
      <path
         d="m 40.496028,150.4334 0.02687,-0.0455 -0.06408,0.0207 q -0.04754,0.0165 -0.07441,0.0289 -0.03721,0.0186 -0.04961,0.0393 -0.0062,0.0103 -0.0062,0.0227 v 0.008 q 0,0.008 0.0021,0.0145 0.0041,0.0145 0.02067,0.0186 0.07648,-0.006 0.144694,-0.10749 z m 0.948778,-0.60978 h 0.0021 q 0.0083,0 0.03101,0.0289 0.02067,0.0289 0.02067,0.0372 0,0.002 -0.0021,0.004 -0.376205,0.28318 -0.702799,0.40514 l -0.05994,0.0227 v 0.002 q -0.04961,0.10955 -0.146761,0.19637 -0.05168,0.0455 -0.10542,0.0744 -0.06201,0.031 -0.124023,0.0331 l -0.0041,0.002 q -0.03307,-0.004 -0.05994,-0.0207 -0.03307,-0.0207 -0.04547,-0.0537 -0.0083,-0.0207 -0.0083,-0.0455 0,-0.008 0.0021,-0.0186 0.0021,-0.0331 0.0186,-0.0599 0.01447,-0.0248 0.03927,-0.0434 0.0186,-0.0145 0.04548,-0.0289 0.03101,-0.0165 0.08682,-0.0331 l 0.07441,-0.0248 0.07235,-0.0207 0.01447,-0.0289 q 0.05374,-0.11369 0.06615,-0.18604 0.0062,-0.0269 0.0062,-0.0475 0,-0.0227 -0.0062,-0.0372 -0.01034,-0.0289 -0.03721,-0.0331 -0.02894,0.004 -0.06821,0.0331 -0.03307,0.0227 -0.07441,0.0641 -0.05788,0.0579 -0.136425,0.15503 -0.05168,0.0662 -0.126091,0.16743 l -0.06201,0.0868 -0.03307,0.0434 q -0.0186,0.0227 -0.03514,0.0434 -0.06615,0.12609 -0.136426,0.24598 -0.142627,0.23564 -0.276985,0.39274 -0.103353,0.12195 -0.206706,0.19637 -0.0124,0.0103 -0.03307,0.0227 l -0.03307,0.0227 -0.03721,0.0207 q -0.02067,0.0124 -0.03927,0.0186 -0.07855,0.0351 -0.1757,0.0434 h -0.0041 q -0.01654,0 -0.0248,-0.0103 -0.01034,-0.0124 -0.01034,-0.031 0,-0.0165 0.0083,-0.031 0.0083,-0.0145 0.0248,-0.0145 0.08062,-0.006 0.144694,-0.0372 0.0124,-0.006 0.03101,-0.0165 l 0.03101,-0.0165 0.03101,-0.0207 0.02687,-0.0207 q 0.09302,-0.0724 0.183968,-0.18604 0.11989,-0.15089 0.243913,-0.39067 0.121956,-0.23771 0.421679,-0.97565 l 0.01034,-0.0248 0.0124,-0.0289 q 0.01447,-0.031 0.03101,-0.0517 0.02894,-0.0372 0.06408,-0.0372 0.01447,0 0.02894,0.006 0.04754,0.0186 0.04754,0.0641 v 0.008 q -0.0021,0.0331 -0.03721,0.11989 -0.07855,0.19223 -0.142626,0.34106 l 0.0041,-0.004 q 0.08062,-0.10335 0.142627,-0.1633 0.04548,-0.0455 0.08475,-0.0744 l 0.02481,-0.0165 0.02687,-0.0145 q 0.03101,-0.0145 0.06408,-0.0186 h 0.0021 q 0.03927,0 0.07648,0.0227 0.03514,0.0227 0.05581,0.062 0.02687,0.0517 0.02894,0.13436 v 0.0165 q 0,0.062 -0.0124,0.11989 0.310058,-0.11782 0.675927,-0.39067 z"
         style="font-family:Bellisia;-inkscape-font-specification:Bellisia;fill:#000000"
         id="path10639" />
    </g>
  </g>
</svg>
