<?xml version="1.0" encoding="UTF-8" standalone="no"?>
<!-- Created with Inkscape (http://www.inkscape.org/) -->

<svg
   width="100mm"
   height="105mm"
   viewBox="0 0 100 105"
   version="1.1"
   id="svg830"
   sodipodi:docname="wedding-1.svg"
   inkscape:version="1.2.1 (9c6d41e, 2022-07-14)"
   inkscape:export-filename="wedding-1.png"
   inkscape:export-xdpi="203.2"
   inkscape:export-ydpi="203.2"
   xmlns:inkscape="http://www.inkscape.org/namespaces/inkscape"
   xmlns:sodipodi="http://sodipodi.sourceforge.net/DTD/sodipodi-0.dtd"
   xmlns="http://www.w3.org/2000/svg"
   xmlns:svg="http://www.w3.org/2000/svg">
  <sodipodi:namedview
     id="namedview832"
     pagecolor="#ffffff"
     bordercolor="#000000"
     borderopacity="0.25"
     inkscape:showpageshadow="2"
     inkscape:pageopacity="0.0"
     inkscape:pagecheckerboard="0"
     inkscape:deskcolor="#d1d1d1"
     inkscape:document-units="mm"
     showgrid="false"
     inkscape:zoom="0.82955976"
     inkscape:cx="20.492797"
     inkscape:cy="186.24336"
     inkscape:window-width="1309"
     inkscape:window-height="839"
     inkscape:window-x="0"
     inkscape:window-y="38"
     inkscape:window-maximized="0"
     inkscape:current-layer="layer1" />
  <defs
     id="defs827" />
  <g
     inkscape:label="Layer 1"
     inkscape:groupmode="layer"
     id="layer1"
     transform="translate(-55.711849,-63.279667)">
    <rect
       style="fill:#fffcf9;fill-opacity:1;stroke-width:0.302636;stroke-linecap:round;stroke-linejoin:round;stroke-miterlimit:3"
       id="rect1893"
       width="100"
       height="105"
       x="55.711849"
       y="63.279667" />
    <g
       id="g349"
       transform="translate(-14.990773,-17.115082)">
      <g
         aria-label="Andras"
         id="text421"
         style="font-size:22.5778px;font-family:Belliss;-inkscape-font-specification:Belliss;stroke-width:0.960033;stroke-linecap:round;stroke-linejoin:round;stroke-miterlimit:3">
        <path
           d="m 111.99131,160.74317 q 1.34496,-0.27561 2.50252,-0.58429 l 0.12126,-0.41892 q 0.44098,-1.5875 1.02526,-3.45061 0.19844,-0.62839 0.48507,-1.54341 l 0.12127,-0.3638 0.11025,-0.3638 q 0.13229,-0.41893 0.23151,-0.69454 1.80798,-5.65547 2.25998,-8.09184 0.25356,-1.36702 0.25356,-2.33716 0,-0.76068 -0.15434,-1.28984 0,0.29765 -0.0551,0.70555 -0.16537,1.06936 -0.74966,2.60174 -0.83784,2.09462 -2.37022,4.79558 -2.61277,4.54202 -6.04133,8.77535 -1.30087,1.59853 -2.59071,3.02067 2.74505,-0.34176 4.8507,-0.76068 z m -9.63526,4.59714 q 1.54341,-1.44419 3.11988,-3.175 l -1.57647,0.16536 -1.5875,0.16537 q -3.252178,0.33073 -4.861728,0.58428 -3.06476,0.4961 -4.67431,1.23473 -1.267797,0.58429 -1.852086,1.38906 -0.341754,0.47405 -0.474045,1.02526 -0.08819,0.35278 -0.08819,0.76068 0,0.18742 0.02205,0.38585 0.05512,0.59532 0.308681,1.09141 0.253559,0.50712 0.71658,0.84887 0.837848,0.63941 2.171791,0.68351 h 0.06615 q 1.102431,-0.0661 2.436374,-0.65043 1.058334,-0.47405 2.24896,-1.25678 1.874133,-1.24574 4.023873,-3.25217 z m 14.83873,7.17683 q 0.62839,0.14332 0.62839,0.27561 0,0.19844 -0.60634,0.27561 h -0.14331 q -0.29766,0 -0.56224,-0.0331 -0.47405,-0.0661 -0.91502,-0.25356 -1.19063,-0.48507 -1.76389,-1.65364 l -0.15434,-0.29766 -0.12127,-0.31971 q -0.0551,-0.13229 -0.0992,-0.3197 l -0.0882,-0.33073 q -0.16537,-0.7717 -0.18742,-1.35599 -0.022,-0.33073 -0.022,-0.68351 0,-0.82682 0.11025,-1.79696 0.11024,-1.02526 0.35277,-2.27101 0.28664,-1.44419 0.72761,-3.07579 -1.05833,0.28664 -2.27101,0.52917 -2.30408,0.46302 -5.42396,0.82682 -1.99541,2.14975 -4.01285,3.93569 -2.19384,1.92925 -4.112075,3.1309 -1.223699,0.76068 -2.304082,1.2237 -1.400089,0.57327 -2.557642,0.63941 h -0.110243 q -1.477258,-0.0441 -2.436374,-0.7717 -0.540192,-0.4079 -0.848872,-1.01424 -0.286633,-0.56224 -0.352779,-1.25677 -0.02205,-0.22049 -0.02205,-0.42995 0,-0.46302 0.09922,-0.87092 0.15434,-0.63941 0.551216,-1.19063 0.661459,-0.90399 2.028474,-1.5434 1.675696,-0.74965 4.795578,-1.2678 1.091407,-0.16536 2.447398,-0.3197 l 1.2237,-0.14332 1.2237,-0.13229 1.84106,-0.18741 1.84106,-0.19844 q 1.59853,-1.77492 3.38447,-4.01285 3.54983,-4.45383 5.96415,-8.44463 1.55443,-2.56866 2.38125,-4.56407 0.57327,-1.42213 0.73863,-2.42535 0.0441,-0.30868 0.0441,-0.57326 0,-0.35278 -0.0772,-0.60634 -0.0772,-0.26458 -0.26458,-0.42995 -0.15434,-0.12126 -0.34176,-0.17638 l -0.0882,-0.011 -0.0441,-0.011 -0.0662,-0.011 q -0.0661,-0.022 -0.18741,-0.022 h -0.022 q -1.88516,0.022 -3.71519,0.44098 -0.70556,0.15434 -1.81901,0.50712 -1.11346,0.38585 -1.7639,0.67248 -3.75929,1.65365 -6.08542,4.36563 -0.60634,0.69453 -1.10243,1.51033 -0.48507,0.79375 -0.80478,1.68672 -0.0772,0.18741 -0.14331,0.44097 l -0.12127,0.452 -0.0992,0.452 -0.0331,0.23151 -0.0221,0.23151 q -0.0441,0.44097 -0.0441,0.83785 0,0.55121 0.0882,0.99218 0.19844,1.02527 0.91502,1.356 0.33073,0.15434 0.73863,0.15434 0.42994,0 0.94809,-0.16537 0.88194,-0.29766 1.57647,-0.89297 0.18742,-0.16536 0.31971,-0.3197 l 0.0661,-0.0882 -0.0992,-0.0882 -0.022,-0.0331 -0.0331,-0.0331 q -0.0331,-0.0551 -0.0551,-0.13229 -0.011,-0.0331 -0.011,-0.0661 v -0.0772 q 0.0221,-0.0882 0.0992,-0.14331 0.0441,-0.0441 0.0882,-0.0551 l 0.0441,-0.011 0.0221,-0.011 q 0.0551,-0.011 0.11024,-0.011 0.0551,0 0.12127,0.011 0.13229,0.011 0.23151,0.0441 l 0.0441,0.022 0.0331,0.0331 0.0441,0.0661 q 0.0441,0.0551 0.0441,0.14332 0,0.0882 -0.0551,0.23151 l -0.0441,0.11024 -0.022,0.0441 -0.0221,0.0221 -0.0331,0.0661 -0.0331,0.0551 -0.0882,0.11025 -0.0772,0.0992 q -0.14332,0.17639 -0.3638,0.3638 -0.77171,0.66146 -1.73082,0.98116 -0.52917,0.17639 -1.00322,0.18742 h -0.11024 q -0.51814,0 -0.92604,-0.19844 -0.4961,-0.22049 -0.80478,-0.71658 -0.24253,-0.37483 -0.3638,-0.95912 -0.11024,-0.51814 -0.11024,-1.14653 0,-0.39687 0.0441,-0.83784 l 0.0331,-0.24254 0.13229,-0.7276 0.13229,-0.47405 q 0.0772,-0.26458 0.15434,-0.46302 0.33073,-0.93707 0.84887,-1.77492 0.50712,-0.84887 1.13551,-1.57647 2.4033,-2.78916 6.26181,-4.47588 0.67248,-0.30868 1.80799,-0.69453 1.12448,-0.3638 1.86311,-0.51814 1.89618,-0.44097 3.84749,-0.46302 l 0.0551,0.011 q 0.69453,0.0661 1.12448,0.35278 0.54019,0.3638 0.8158,1.05834 0.2756,0.67248 0.29765,1.68672 v 0.18741 q 0,0.98116 -0.20946,2.23794 -0.41892,2.56866 -2.14974,8.12492 -0.0882,0.29765 -0.22049,0.69453 l -0.22048,0.7276 q -0.29766,0.95912 -0.47405,1.52136 -0.57326,1.87413 -0.99219,3.40651 0.65044,-0.20946 1.25677,-0.42995 2.51355,-0.92604 4.26642,-2.25998 0.0882,-0.0661 0.16536,-0.0661 0.0992,0 0.17639,0.11025 0.0551,0.0772 0.0551,0.14331 0,0.0992 -0.11024,0.18742 -1.80799,1.37804 -4.38768,2.32613 -0.74965,0.27561 -1.57648,0.51814 -0.50712,1.87413 -0.8158,3.41754 -0.23151,1.20165 -0.34175,2.18281 -0.11024,0.97014 -0.11024,1.77492 0,0.28663 0.011,0.55121 0.0662,1.27882 0.44097,2.17179 l 0.0661,0.12127 0.0551,0.12127 q 0.0661,0.13229 0.13229,0.22049 l 0.0662,0.11024 0.23151,0.29766 q 0.0331,0.0441 0.0882,0.0882 l 0.0882,0.0882 0.0772,0.0882 q 0.0551,0.0441 0.0992,0.0661 l 0.0882,0.0772 0.0992,0.0661 q 0.11024,0.0882 0.18741,0.12127 0.35278,0.19844 0.78273,0.35278 0.16536,0.0551 0.35278,0.0992 l 0.16536,0.0441 z"
           style="font-family:Bellisia;-inkscape-font-specification:Bellisia"
           id="path10103" />
        <path
           d="m 132.49654,157.0831 h 0.011 q 0.0331,0 0.16536,0.15434 0.12127,0.16536 0.12127,0.19843 v 0.011 l -0.74965,0.62839 -0.48507,0.40789 q -0.56224,0.47405 -1.00321,0.78273 -0.60634,0.4079 -1.15756,0.62839 -0.66146,0.26458 -1.30087,0.27561 l -0.011,-0.011 q -0.70556,0 -1.21268,-0.14332 -0.66146,-0.17638 -1.06935,-0.61736 -0.35278,-0.38585 -0.51815,-0.94809 -0.0882,-0.30868 -0.13229,-0.62838 -0.011,-0.0551 -0.0221,-0.0992 v -0.0882 l -0.011,-0.17639 v -0.16536 q -0.011,-0.0221 -0.0331,-0.0331 -0.011,-0.011 -0.0331,-0.011 -0.0221,0 -0.0441,0.011 -0.0661,0.011 -0.13229,0.0661 -0.011,0 -0.0221,-0.011 l -0.19843,0.16536 q -0.20947,0.16537 -0.452,0.41893 -0.37483,0.3638 -0.8599,0.91501 l -0.4079,0.48507 -0.20946,0.24254 -0.022,0.0221 q -0.11024,0.25356 -0.23151,0.35278 -0.0992,0.0772 -0.20946,0.0772 -0.0882,0 -0.18741,-0.0441 -0.28664,-0.12127 -0.28664,-0.30868 v -0.0441 q 0.011,-0.0882 0.0661,-0.22049 l 0.11024,-0.24253 q 0.68351,-1.64262 0.8158,-2.21589 0.0221,-0.0772 0.0331,-0.15434 l 0.011,-0.0441 v -0.0331 q -0.38585,0.0662 -0.91502,0.39688 -0.39687,0.25356 -1.04731,0.76067 -0.0221,0 -0.15434,-0.16536 -0.13229,-0.16536 -0.13229,-0.19844 0.66146,-0.52917 1.08038,-0.79375 0.7717,-0.47404 1.34497,-0.49609 l 0.011,0.022 q 0.17639,0.0551 0.28664,0.19843 0.13229,0.20947 0.13229,0.56224 v 0.0441 q 0,0.4961 -0.25356,1.27882 0.37482,-0.41892 0.69453,-0.73863 0.25356,-0.25356 0.48507,-0.44097 0.3197,-0.26458 0.56224,-0.39688 0.16536,-0.0661 0.27561,-0.0992 0.0661,-0.011 0.12127,-0.011 0.0661,0 0.12126,0.0221 0.12127,0.0331 0.20946,0.12127 0.0992,0.0992 0.16537,0.25356 0.14332,0.2756 0.16536,0.58429 l 0.022,0.30868 q 0.011,0.19843 0.0331,0.35277 0.0772,0.42995 0.2756,0.71658 0.24254,0.37483 0.72761,0.55122 0.46302,0.17639 1.06936,0.17639 1.01423,-0.011 2.18281,-0.8158 0.41893,-0.28663 0.97014,-0.76068 l 0.47405,-0.4079 z"
           style="font-family:Bellisia;-inkscape-font-specification:Bellisia"
           id="path10105" />
        <path
           d="m 145.80289,145.97059 q 0.011,-0.0772 0.011,-0.15435 0,-0.45199 -0.27561,-0.7276 -0.28663,-0.29766 -0.89297,-0.31971 -0.0331,0 -0.0551,-0.0331 -0.0331,0.0221 -0.0661,0.0221 -1.15756,0.0551 -2.43638,0.94809 -0.98116,0.69453 -1.96233,1.84106 -1.56545,1.83004 -2.95451,4.56407 -0.66146,1.28984 -1.10244,2.46945 -0.48507,1.26779 -0.7276,2.3592 1.46623,-1.03629 3.27422,-2.4915 1.97335,-1.5875 3.43959,-3.02066 0.89297,-0.87092 1.5875,-1.64262 0.84887,-0.98117 1.36702,-1.79696 l 0.15434,-0.24254 0.26458,-0.48507 0.11024,-0.25356 q 0.25356,-0.61736 0.26459,-1.03628 z m -12.38031,13.11893 q 0.18741,-0.19844 0.41892,-0.46302 l 0.4079,-0.47404 0.011,-0.011 -0.011,-0.28663 -0.0221,-0.27561 q -0.0441,-0.35278 -0.11024,-0.56224 -0.0441,-0.14332 -0.0992,-0.20946 -0.0441,-0.0441 -0.0772,-0.0551 -0.3638,0.0551 -0.68351,0.54019 -0.12126,0.17639 -0.25356,0.452 l -0.22048,0.46302 q -0.28663,0.57326 -0.35278,0.93706 -0.022,0.1323 -0.022,0.23151 0,0.11025 0.022,0.18742 0.0441,0.14331 0.17639,0.16536 0.0661,-0.022 0.15434,-0.0772 0.0992,-0.0551 0.23151,-0.15434 0.19844,-0.16536 0.42995,-0.4079 z m 12.78821,-13.7363 q 0.0661,0.24254 0.0661,0.47405 0,0.0882 -0.011,0.17639 -0.011,0.48507 -0.29766,1.1796 l -0.12127,0.27561 -0.0661,0.13229 -0.0772,0.13229 -0.14332,0.26459 -0.15434,0.24253 q -0.54019,0.8599 -1.42214,1.86311 -0.69453,0.78273 -1.59852,1.66467 -1.48829,1.44419 -3.47266,3.05374 -2.05053,1.66467 -3.69315,2.78915 -0.0772,0.46302 -0.0882,0.88194 -0.011,0.16537 -0.011,0.31971 0,0.51814 0.11025,0.97014 0.0772,0.34175 0.20946,0.58429 0.15434,0.28663 0.37482,0.47404 0.41893,0.38586 1.11346,0.4079 0.87092,0 1.91823,-0.42994 0.84887,-0.34176 1.78594,-0.95912 0.74965,-0.49609 1.64262,-1.2237 l 0.39688,-0.33073 0.39688,-0.34175 q 0.48507,-0.4079 1.01423,-0.82683 h 0.011 q 0.0551,0 0.16536,0.16537 0.11024,0.14331 0.11024,0.19844 0,0.011 -0.011,0.022 -0.50712,0.39687 -0.99219,0.80477 l -0.39687,0.33073 -0.39688,0.34175 q -0.91502,0.74966 -1.68672,1.24575 -0.97014,0.65044 -1.86311,1.01424 -1.1355,0.452 -2.09462,0.46302 h -0.0221 q -0.88194,-0.0331 -1.44418,-0.54019 -0.29766,-0.25356 -0.48507,-0.61736 -0.18742,-0.33073 -0.28664,-0.70556 -0.15434,-0.56224 -0.16536,-1.30087 l -0.37483,0.42995 q -0.20946,0.24253 -0.38585,0.42995 -0.26458,0.27561 -0.47404,0.45199 -0.15434,0.12127 -0.28664,0.19844 -0.0992,0.0551 -0.16536,0.0882 -0.0992,0.0331 -0.20946,0.0551 h -0.011 q -0.20946,0 -0.39687,-0.11024 -0.17639,-0.12127 -0.27561,-0.31971 -0.14332,-0.27561 -0.16537,-0.69453 v -0.0992 q 0,-0.60634 0.24254,-1.14653 0.26458,-0.56224 0.76068,-1.01424 0.25356,-0.23151 0.52916,-0.3638 0.31971,-0.16536 0.63942,-0.17639 h 0.0441 q 0.24254,0.0331 0.38585,0.23151 0.11025,0.14332 0.17639,0.35278 0.0441,0.12127 0.0662,0.25356 l 0.0331,-0.18741 q 0.20946,-1.34497 0.71658,-2.77813 0.47405,-1.35599 1.14653,-2.62379 1.37804,-2.59071 3.19705,-4.50894 1.09141,-1.12448 2.1277,-1.78594 1.38906,-0.89297 2.65686,-0.93707 0.0551,0 0.0882,0.0331 0.0331,-0.0331 0.0661,-0.0331 0.3638,0.022 0.63941,0.11024 0.34175,0.11025 0.57326,0.35278 0.24254,0.24254 0.34176,0.59531 z"
           style="font-family:Bellisia;-inkscape-font-specification:Bellisia"
           id="path10107" />
        <path
           d="m 145.4942,155.76018 0.0221,0.011 0.16537,-0.18741 q 0.50712,-0.65044 0.69453,-1.12448 0.0882,-0.20946 0.0882,-0.35278 0,-0.0882 -0.0331,-0.14331 -0.0221,-0.0661 -0.12127,-0.0992 -0.0992,-0.0441 -0.25356,-0.0441 -0.54019,0.0441 -0.8158,0.54019 -0.14331,0.26458 -0.17638,0.55122 -0.011,0.0992 -0.011,0.17639 0,0.19843 0.0661,0.34175 0.0992,0.19844 0.37482,0.33073 z m 6.59255,1.34497 h 0.011 q 0.0441,0 0.16536,0.16536 0.11025,0.14332 0.11025,0.19844 0,0.011 -0.011,0.0221 -0.33073,0.24253 -0.74965,0.58429 l -1.45521,1.27882 -0.73863,0.63941 q -0.91502,0.78272 -1.53238,1.23472 -0.46302,0.33073 -0.83785,0.54019 -0.28663,0.16537 -0.46302,0.23151 -0.29766,0.11025 -0.54019,0.13229 l -0.0221,-0.011 -0.011,0.011 q -0.25356,-0.011 -0.42995,-0.0551 -0.24254,-0.0661 -0.42995,-0.22048 -0.19844,-0.16537 -0.27561,-0.41893 -0.0551,-0.19844 -0.0551,-0.452 0.0221,-0.3638 0.14332,-0.76067 0.0441,-0.16537 0.11024,-0.34176 l 0.12127,-0.33073 q 0.29765,-0.73863 0.70555,-1.4993 l 0.011,-0.022 q 0.0992,-0.18742 0.22048,-0.39688 l 0.0221,-0.0441 q 0.12127,-0.24254 0.18742,-0.44098 0.0661,-0.20946 0.0661,-0.35278 v -0.0661 q -0.0221,-0.14332 -0.12127,-0.19844 -0.12126,-0.0551 -0.33072,-0.11024 l -0.30869,-0.0992 q -0.76067,0.83785 -1.68672,1.51033 h -0.011 q -0.0331,0 -0.15434,-0.16536 -0.11024,-0.16537 -0.11024,-0.20947 v -0.011 q 0.8158,-0.58429 1.4993,-1.31189 -0.34175,-0.19844 -0.48507,-0.4961 -0.12126,-0.24253 -0.12126,-0.54019 0,-0.12127 0.022,-0.25356 0.0441,-0.37483 0.23152,-0.71658 0.19843,-0.3638 0.52916,-0.56224 0.30868,-0.19844 0.68351,-0.22049 h 0.0772 l 0.011,0.011 q 0.18742,0.011 0.34176,0.0661 0.27561,0.0992 0.38585,0.34176 0.0661,0.14331 0.0661,0.3197 0,0.0772 -0.011,0.15434 -0.022,0.19844 -0.0992,0.38585 -0.22048,0.5402 -0.7717,1.24575 l -0.0551,0.0661 0.26458,0.0882 0.17639,0.0551 0.0551,0.0221 q 0.16537,0.0772 0.28663,0.16537 0.18742,0.13229 0.28664,0.33073 l 0.0661,0.14331 0.011,0.011 0.0221,0.0772 q 0.011,0.0331 0.011,0.0551 0.011,0.0441 0.011,0.0992 l -0.011,0.0772 q -0.011,0.13229 -0.0331,0.28663 -0.0772,0.35278 -0.26459,0.68351 -0.0772,0.14331 -0.22048,0.3638 l -0.12127,0.19844 -0.14332,0.22048 q -0.3638,0.58429 -0.59531,1.01424 -0.17639,0.34176 -0.27561,0.58429 -0.13229,0.33073 -0.16536,0.60634 -0.011,0.0551 -0.011,0.11024 0,0.24254 0.1323,0.37483 0.16536,0.15434 0.55121,0.15434 0.16537,-0.011 0.39688,-0.0992 0.14331,-0.0551 0.4079,-0.19844 0.34175,-0.19844 0.78272,-0.51814 0.59532,-0.42995 1.49931,-1.20165 l 0.73863,-0.63941 1.09141,-0.95912 0.37482,-0.3197 q 0.41893,-0.35278 0.77171,-0.61736 z"
           style="font-family:Bellisia;-inkscape-font-specification:Bellisia"
           id="path10109" />
        <path
           d="m 152.99074,158.59343 q 0.14332,-0.15434 0.33073,-0.37483 l 0.33073,-0.38585 -0.011,-0.23151 -0.011,-0.20946 q -0.0331,-0.28663 -0.0882,-0.452 -0.0331,-0.11024 -0.0772,-0.15434 -0.0221,-0.0331 -0.0331,-0.0331 -0.27561,0.0551 -0.50712,0.44097 -0.0882,0.13229 -0.18741,0.3638 l -0.0882,0.18742 -0.0992,0.18741 q -0.23151,0.47404 -0.28664,0.73863 -0.0331,0.12127 -0.0331,0.22048 0,0.0551 0.011,0.0992 0.011,0.0882 0.0992,0.11025 0.0551,-0.011 0.11025,-0.0441 0.0772,-0.0551 0.17639,-0.13229 0.16536,-0.13229 0.3638,-0.33073 z m 5.86494,-1.47726 q 0.022,0 0.0551,0.0441 0.0441,0.0441 0.11024,0.12126 0.0551,0.0772 0.0882,0.1323 0.022,0.0441 0.022,0.0661 v 0.011 l -0.50711,0.38585 -0.4961,0.4079 q -0.63941,0.50712 -1.04731,0.79375 -0.61736,0.44097 -1.1355,0.68351 -0.68351,0.3197 -1.28985,0.34175 h -0.0551 q -0.33073,-0.011 -0.57326,-0.16537 -0.29766,-0.17638 -0.4079,-0.52916 -0.0772,-0.27561 -0.0772,-0.58429 v -0.14332 l -0.22049,0.23151 q -0.20946,0.23151 -0.39688,0.37483 -0.12126,0.0992 -0.23151,0.16536 l -0.0661,0.0441 -0.0772,0.0331 q -0.0882,0.0331 -0.18742,0.0441 h -0.011 q -0.17639,0 -0.35278,-0.0992 -0.15434,-0.0992 -0.24253,-0.2756 -0.12127,-0.23152 -0.15434,-0.58429 v -0.0992 q 0,-0.51815 0.19843,-0.95912 0.20947,-0.46302 0.63941,-0.83785 0.51815,-0.42994 1.03629,-0.44097 0.0992,0.011 0.19844,0.0661 0.0882,0.0661 0.15434,0.14331 0.0882,0.12127 0.15434,0.29766 l 0.011,0.0331 q 0.12127,-0.3197 0.28663,-0.46302 0.12127,-0.11024 0.24254,-0.11024 0.0992,0 0.20946,0.0661 0.25356,0.14332 0.25356,0.34176 0,0.0331 -0.011,0.0661 -0.0221,0.0772 -0.0882,0.22049 l -0.0661,0.11024 -0.0662,0.1323 q -0.0331,0.0772 -0.12127,0.25355 l -0.0661,0.14332 -0.0772,0.15434 q -0.17639,0.38585 -0.28664,0.71658 -0.11024,0.34176 -0.11024,0.60634 0,0.11024 0.0221,0.20946 0.0441,0.17639 0.17639,0.27561 0.12127,0.0882 0.34175,0.0882 0.50712,-0.011 1.11346,-0.29765 0.47404,-0.22049 1.06936,-0.63941 0.38585,-0.26459 1.01423,-0.77171 l 0.50712,-0.40789 z"
           style="font-family:Bellisia;-inkscape-font-specification:Bellisia"
           id="path10111" />
        <path
           d="m 158.44777,160.61088 q 0.16537,-0.17639 0.23152,-0.44097 l -0.0551,0.011 q -0.30868,0.0882 -0.47404,0.14332 -0.26459,0.0992 -0.3638,0.19843 -0.0551,0.0551 -0.0772,0.12127 -0.011,0.0331 -0.011,0.0662 0,0.0331 0.011,0.0661 0.011,0.0551 0.0441,0.0882 0.0331,0.0221 0.0882,0.0331 0.37482,-0.0221 0.60633,-0.28663 z m 1.21268,-4.75148 -0.0992,0.0992 q -0.0551,0.0551 -0.11024,0.12126 -0.13229,0.17639 -0.23151,0.42995 -0.0992,0.27561 -0.12127,0.60634 0.41892,-0.33073 0.66146,-0.55122 0.3638,-0.34175 0.38585,-0.58429 0.011,-0.0441 0.011,-0.0882 0,-0.0992 -0.0441,-0.15434 -0.0441,-0.0551 -0.15434,-0.0662 -0.0331,0 -0.0772,0.0331 l -0.0331,0.0221 -0.0441,0.0331 q -0.0661,0.0441 -0.14332,0.0992 z m 4.92787,1.2237 q 0,-0.011 0.011,-0.011 0.011,0 0.0551,0.0441 0.0551,0.0441 0.11024,0.12127 0.0551,0.0772 0.0772,0.14331 0.0221,0.0441 0.0221,0.0551 0,0.0221 -0.011,0.0221 -2.17179,1.48829 -4.22231,2.17179 -0.48507,0.16537 -1.2237,0.35278 l -0.0441,0.16537 q -0.16536,0.55121 -0.56224,0.87092 -0.4079,0.33073 -0.95911,0.35278 h -0.011 q -0.20946,-0.022 -0.3638,-0.14332 -0.16536,-0.12127 -0.22049,-0.34175 -0.011,-0.0772 -0.011,-0.16537 0,-0.0992 0.0221,-0.20946 0.0441,-0.18741 0.19844,-0.31971 0.11024,-0.11024 0.26458,-0.18741 0.0992,-0.0551 0.26458,-0.12127 0.18742,-0.0661 0.51815,-0.15434 l 0.22048,-0.0551 v -0.0772 q -0.011,-0.16536 -0.0551,-0.3638 -0.0331,-0.13229 -0.12127,-0.38585 l -0.0661,-0.20946 -0.0551,-0.22049 q -0.16537,-0.59531 -0.16537,-1.04731 v -0.14332 q 0.0221,-0.51814 0.20946,-0.93706 0.14332,-0.36381 0.37483,-0.61737 0.18741,-0.19843 0.4079,-0.3197 0.16536,-0.0882 0.30868,-0.13229 0.11024,-0.0221 0.20946,-0.0221 0.0221,-0.011 0.0441,-0.011 0.0221,0 0.0441,0.011 h 0.0551 q 0.16536,0 0.29766,0.0551 0.16536,0.0551 0.26458,0.19844 0.11024,0.13229 0.13229,0.29765 0.011,0.0662 0.011,0.14332 0,0.0772 -0.011,0.15434 -0.0331,0.25356 -0.19844,0.4961 -0.11024,0.15434 -0.33073,0.35277 -0.20946,0.19844 -0.47404,0.41893 l -0.48507,0.38585 q 0.0441,0.24253 0.13229,0.56224 l 0.11024,0.41892 q 0.0662,0.25356 0.0882,0.47405 0.011,0.15434 0.011,0.33073 0.59531,-0.16537 1.02526,-0.30868 1.97336,-0.65044 4.10105,-2.09462 z"
           style="font-family:Bellisia;-inkscape-font-specification:Bellisia"
           id="path10113" />
      </g>
      <g
         aria-label="AND"
         id="text583"
         style="font-size:3.175px;font-family:'PT Serif Caption';-inkscape-font-specification:'PT Serif Caption';letter-spacing:0.529167px;stroke-width:0.3;stroke-linecap:round;stroke-linejoin:round;stroke-miterlimit:3">
        <path
           d="m 119.25272,131.67004 v 0.0635 h -0.83503 v -0.0635 h 0.18733 l -0.21273,-0.44133 h -0.64135 l -0.18415,0.44133 h 0.25083 v 0.0635 h -0.54293 v -0.0635 h 0.21273 l 0.72707,-1.74625 h 0.0794 l 0.80645,1.74625 z m -1.4732,-0.508 h 0.58102 l -0.31115,-0.6477 z"
           style="font-family:'Rozha One';-inkscape-font-specification:'Rozha One'"
           id="path10116" />
        <path
           d="m 120.13113,131.67004 h 0.254 v 0.0635 h -0.508 v -0.0635 h 0.1905 v -1.5113 q -0.1016,-0.1397 -0.1905,-0.1397 v -0.0635 h 0.59373 l 0.89217,1.05727 v -0.99377 h -0.254 v -0.0635 h 0.53975 v 0.0635 h -0.22225 v 1.74625 h -0.0635 l -1.2319,-1.52718 z"
           style="font-family:'Rozha One';-inkscape-font-specification:'Rozha One'"
           id="path10118" />
        <path
           d="m 123.1622,131.73354 h -0.79375 v -0.0635 h 0.15875 v -1.651 h -0.15875 v -0.0635 h 0.79375 q 0.23495,0 0.42227,0.0794 0.1905,0.0762 0.30798,0.2032 0.23812,0.26353 0.23812,0.5969 0,0.45085 -0.23812,0.67628 -0.23813,0.22225 -0.73025,0.22225 z m -0.15875,-0.0635 q 0.3429,0 0.4953,-0.18415 0.1524,-0.18733 0.1524,-0.60643 0,-0.42227 -0.1651,-0.64135 -0.1651,-0.21907 -0.4826,-0.21907 z"
           style="font-family:'Rozha One';-inkscape-font-specification:'Rozha One'"
           id="path10120" />
      </g>
      <g
         aria-label="Olga"
         id="text589"
         style="font-size:22.5778px;font-family:Bellisia;-inkscape-font-specification:Bellisia;stroke-width:0.3;stroke-linecap:round;stroke-linejoin:round;stroke-miterlimit:3">
        <path
           d="m 99.604207,113.31791 q 1.466233,-2.63481 2.248963,-5.3027 0.80477,-2.71198 0.80477,-5.11528 0,-0.29766 -0.011,-0.58429 -0.0661,-1.60955 -0.46302,-2.822225 l -0.11025,-0.33073 -0.0661,-0.165365 -0.0772,-0.165364 q -0.0441,-0.143317 -0.14332,-0.33073 l -0.15434,-0.319705 q -0.41892,-0.727605 -0.80477,-1.157553 -0.859901,-1.036286 -2.282038,-1.631599 -1.234723,-0.496094 -2.789152,-0.540192 l -0.08819,-0.01102 -0.07717,0.01102 q -2.590714,0.05512 -4.994015,1.179602 -2.237936,1.04731 -4.233338,2.932468 -1.807988,1.730823 -3.252173,4.001823 -1.389064,2.18282 -2.304082,4.63022 -0.948092,2.52457 -1.256772,4.96094 -0.121268,1.03629 -0.121268,1.9954 0,1.65365 0.374827,3.06476 0.220486,0.83785 0.573264,1.54341 1.466234,-0.74966 3.737244,-1.52136 1.885158,-0.62839 4.762505,-1.41111 l 2.392276,-0.62839 2.392277,-0.61736 q 2.888371,-0.74965 4.773529,-1.31189 z m -3.47266,4.92787 q 1.774915,-2.02848 3.130906,-4.33256 l -0.694532,0.20946 q -1.896183,0.56224 -4.784554,1.3119 l -2.392276,0.61736 -2.392277,0.62838 q -2.855298,0.77171 -4.729432,1.40009 -2.237936,0.76068 -3.671097,1.48829 0.09922,0.18741 0.209462,0.34175 l 0.165364,0.25356 0.198438,0.25356 q 0.07717,0.0992 0.198438,0.23151 l 0.209462,0.23151 q 0.518143,0.50712 0.97014,0.79375 1.04731,0.69453 2.315106,0.95912 0.551216,0.12126 1.124481,0.16536 0.01102,-0.0441 0.0441,-0.0992 0.07717,-0.11024 0.15434,-0.17639 l 0.07717,-0.0551 q 0.0441,-0.0221 0.09922,-0.0331 0.03307,-0.011 0.06615,-0.011 0.09922,0 0.176389,0.0551 0.07717,0.0551 0.132292,0.12126 l 0.06615,0.11025 q 0.0441,0.11024 0.06615,0.22048 l 0.01102,0.0551 v 0.11025 l -0.02205,0.0441 v 0.0331 l -0.02205,0.0221 -0.01102,0.022 q -0.0441,0.0551 -0.09922,0.0772 h -0.01103 l -0.02205,0.011 h -0.0441 q -0.03307,0.011 -0.0441,0.011 h -0.03307 l -0.165364,-0.011 -0.683508,-0.0441 -0.341754,-0.0441 -0.341754,-0.0551 -0.330729,-0.0551 q -1.400088,-0.29766 -2.546617,-1.03628 -1.113456,-0.71659 -1.951304,-1.96233 l -0.154341,-0.25356 -0.286632,0.16536 q -0.540192,0.31971 -1.003213,0.67249 -0.507119,0.39687 -0.870921,0.80477 -0.859897,0.95912 -0.89297,2.0836 v 0.12126 q 0,0.4961 0.25356,0.92605 0.275608,0.44097 0.815799,0.74965 0.915018,0.51814 2.271009,0.61736 h 0.09922 q 1.433161,-0.011 2.998614,-0.27561 1.576478,-0.2756 2.91042,-0.73863 2.866322,-0.98116 5.335769,-2.723 2.42535,-1.69775 4.4428,-4.01285 z m 11.266853,-8.44463 q 0.0882,-0.0662 0.16536,-0.0662 0.0992,0 0.17639,0.0992 0.0551,0.0772 0.0551,0.14332 0,0.11024 -0.12126,0.19844 -0.89297,0.67248 -2.13872,1.31189 -1.01424,0.52917 -2.27101,1.02526 -1.27882,0.51815 -2.8112,1.02526 l -0.37483,0.65044 q -3.186025,5.49011 -8.213114,8.76433 -5.23655,3.45061 -11.421192,3.51676 l -0.07717,-0.011 h -0.05512 q -1.455209,-0.11024 -2.469447,-0.67248 -0.650434,-0.3638 -0.981164,-0.90399 -0.319705,-0.52917 -0.319705,-1.16858 v -0.15434 q 0.02205,-0.66146 0.297657,-1.27882 0.242535,-0.57327 0.705556,-1.09141 0.385851,-0.44097 0.937067,-0.87092 0.48507,-0.3638 1.058334,-0.70556 l 0.286632,-0.16536 q -0.451997,-0.84887 -0.738629,-1.86311 -0.418924,-1.56545 -0.418924,-3.35139 0,-1.00322 0.132292,-2.0836 0.319705,-2.62379 1.367015,-5.2586 1.003213,-2.48047 2.469447,-4.61919 1.554429,-2.25998 3.439587,-3.935679 2.083596,-1.830036 4.398702,-2.833249 1.234724,-0.529167 2.491496,-0.8158 1.289845,-0.275607 2.612763,-0.30868 0.0441,0 0.08819,0.01102 0.0441,-0.01102 0.09922,-0.01102 1.708769,0.05512 3.020662,0.584288 l 0.363803,0.165365 q 0.198437,0.08819 0.341754,0.176389 0.15434,0.07717 0.341753,0.198438 l 0.330733,0.209462 q 0.7276,0.540191 1.14653,1.058334 l 0.13229,0.143316 0.12127,0.154341 0.23151,0.319705 0.20946,0.33073 q 0.12127,0.198437 0.18741,0.341753 0.29766,0.518143 0.60634,1.433162 0.44097,1.400085 0.51814,3.042715 0.011,0.29765 0.011,0.60633 0,2.56867 -0.82683,5.44602 -0.66146,2.23793 -1.74184,4.3546 1.25677,-0.42995 2.32613,-0.8599 1.23472,-0.49609 2.23794,-1.01423 1.20165,-0.61736 2.07257,-1.2678 z"
           id="path10123" />
        <path
           d="m 108.78746,107.18839 q -0.48507,1.26779 -0.7276,2.3592 1.46623,-1.03628 3.27422,-2.49149 1.97335,-1.58751 3.43959,-3.02067 0.89297,-0.87092 1.5875,-1.64262 0.84887,-0.98116 1.37804,-1.79696 l 0.14331,-0.24254 0.26459,-0.485069 0.11024,-0.253559 q 0.25356,-0.617362 0.26458,-1.036286 0.011,-0.07717 0.011,-0.15434 0,-0.451997 -0.27561,-0.727605 -0.28663,-0.297657 -0.89297,-0.319705 -0.0331,0 -0.0551,-0.03307 -0.0331,0.02205 -0.0661,0.02205 -1.15755,0.05512 -2.42535,0.948092 -0.98116,0.694532 -1.97335,1.841057 -1.55443,1.83004 -2.95452,4.56407 -0.66146,1.28985 -1.10243,2.46945 z m 7.92649,2.62379 h 0.011 q 0.0551,0 0.16537,0.15434 0.11024,0.15434 0.11024,0.19843 0,0.022 -0.011,0.022 -0.30868,0.24254 -0.80477,0.66146 l -0.4079,0.34175 -0.4079,0.33073 q -0.92604,0.76068 -1.70877,1.27882 -0.99219,0.66146 -1.88516,1.03629 -1.14653,0.47405 -2.12769,0.48507 h -0.0221 q -0.88194,-0.0331 -1.44419,-0.54019 -0.29765,-0.25356 -0.48507,-0.61736 -0.18741,-0.33073 -0.28663,-0.70556 -0.16536,-0.62838 -0.16536,-1.47726 0.011,-0.67248 0.13229,-1.44418 0.20946,-1.34497 0.71658,-2.77813 0.47405,-1.35599 1.14653,-2.62379 1.37804,-2.59071 3.19705,-4.508944 1.09141,-1.12448 2.12769,-1.785939 1.38907,-0.89297 2.65686,-0.937067 0.0551,0 0.0882,0.03307 0.0331,-0.03307 0.0772,-0.03307 0.35278,0.02205 0.62839,0.110243 0.34175,0.110244 0.57326,0.352778 0.24253,0.242535 0.34175,0.595314 0.0662,0.264583 0.0662,0.518142 v 0.132292 q -0.0221,0.48507 -0.30868,1.179602 l -0.12127,0.275609 -0.13229,0.26458 -0.15434,0.26459 -0.15434,0.24253 q -0.54019,0.8599 -1.41111,1.86311 -0.70556,0.78273 -1.60955,1.66467 -1.48829,1.44419 -3.47266,3.05374 -2.05053,1.66467 -3.69315,2.78915 -0.0662,0.46302 -0.0882,0.88195 -0.011,0.14331 -0.011,0.2756 0,0.55122 0.11024,1.01424 0.0882,0.34175 0.22049,0.58429 0.15434,0.28663 0.3638,0.47405 0.41893,0.38585 1.11346,0.4079 0.89297,0 1.9513,-0.44098 0.84888,-0.3638 1.80799,-0.99219 0.76068,-0.50711 1.66467,-1.24574 l 0.4079,-0.34176 0.39688,-0.34175 q 0.49609,-0.41893 0.83785,-0.67248 z"
           id="path10125" />
        <path
           d="m 116.85726,114.50853 q 0.27561,-0.51814 0.54019,-1.11345 l -1.27882,0.58429 -0.8599,0.38585 q -0.47404,0.22048 -0.83784,0.4079 -0.47405,0.23151 -0.8158,0.44097 -0.42995,0.25356 -0.72761,0.51814 -0.35278,0.31971 -0.51814,0.66146 -0.17639,0.33073 -0.17639,0.74966 v 0.0441 q 0.022,0.42995 0.28663,0.70556 0.26459,0.26458 0.69453,0.28663 h 0.011 q 0.41892,-0.0441 0.76068,-0.19844 0.0772,-0.0331 0.17639,-0.0882 l 0.16536,-0.0882 0.30868,-0.22048 q 0.4961,-0.38585 0.98117,-0.99219 0.63941,-0.80478 1.28984,-2.0836 z m 0.83785,-3.30729 q 0.15434,-0.15434 0.34175,-0.37483 l 0.33073,-0.38585 -0.011,-0.23151 -0.0221,-0.20946 q -0.022,-0.28663 -0.0882,-0.452 -0.0331,-0.11024 -0.0772,-0.15434 -0.011,-0.0331 -0.022,-0.0331 -0.27561,0.0551 -0.50712,0.44097 -0.0882,0.13229 -0.19844,0.3638 l -0.17639,0.37483 q -0.23151,0.47405 -0.29766,0.73863 -0.022,0.11024 -0.022,0.19844 0,0.0661 0.011,0.12126 0.011,0.0882 0.0992,0.11025 0.0441,-0.011 0.11024,-0.0441 0.0772,-0.0551 0.17639,-0.13229 0.15434,-0.13229 0.35278,-0.33073 z m 4.99401,-1.47726 q 0.011,-0.011 0.0331,-0.011 0.0661,0 0.17639,0.14331 0.0882,0.12127 0.0882,0.18742 0,0.0331 -0.022,0.0551 -1.74184,1.30087 -3.45061,2.23793 -0.44097,0.24254 -0.98116,0.50712 -0.50712,1.04731 -1.05834,1.97335 -0.74965,1.25678 -1.46623,2.09463 -0.56224,0.65043 -1.10243,1.04731 -0.0661,0.0551 -0.17639,0.12126 l -0.17639,0.12127 -0.19844,0.11024 q -0.12127,0.0551 -0.20946,0.0992 -0.41893,0.18742 -0.94809,0.23151 h -0.0662 q -0.60634,-0.0221 -0.99219,-0.42995 -0.39687,-0.39687 -0.41892,-1.00321 v -0.0992 q 0,-0.49609 0.20946,-0.92604 0.20946,-0.41892 0.63941,-0.79375 0.33073,-0.29766 0.79375,-0.58429 0.35278,-0.20946 0.84887,-0.452 0.37483,-0.18741 0.84888,-0.4079 l 0.85989,-0.39687 q 1.04731,-0.46302 1.77492,-0.8158 0.27561,-0.61736 0.65043,-1.55443 l -0.30868,0.34175 q -0.22048,0.23151 -0.39687,0.37483 -0.13229,0.0992 -0.24254,0.16537 l -0.0661,0.0441 -0.0772,0.0331 q -0.0882,0.0331 -0.18742,0.0441 -0.18741,0 -0.35278,-0.0992 -0.15434,-0.0992 -0.25355,-0.2756 -0.12127,-0.23151 -0.14332,-0.58429 v -0.14332 q 0,-0.49609 0.18741,-0.91502 0.22049,-0.46302 0.65044,-0.83784 0.51814,-0.42995 1.02526,-0.44098 h 0.011 q 0.0992,0.011 0.18742,0.0662 0.0992,0.0661 0.16536,0.14331 0.0882,0.12127 0.15434,0.29766 0.0662,0.22049 0.0992,0.56224 l 0.011,0.0882 0.15435,-0.35278 0.14331,-0.38585 0.0662,-0.1323 0.0661,-0.15434 q 0.0772,-0.16536 0.16537,-0.2756 0.15434,-0.19844 0.34175,-0.19844 0.0772,0 0.15434,0.0331 0.25356,0.0992 0.25356,0.34176 v 0.0441 q -0.011,0.17639 -0.19844,0.63941 -0.61736,1.49931 -1.0914,2.54662 l 0.42994,-0.23151 q 1.6757,-0.90399 3.39549,-2.19384 z"
           id="path10127" />
        <path
           d="m 123.57107,111.20124 q 0.14332,-0.15434 0.33073,-0.37483 l 0.33073,-0.38585 -0.011,-0.23151 -0.011,-0.20946 q -0.0331,-0.28663 -0.0882,-0.452 -0.0331,-0.11024 -0.0772,-0.15434 -0.022,-0.0331 -0.0331,-0.0331 -0.27561,0.0551 -0.50712,0.44097 -0.0882,0.13229 -0.18741,0.3638 l -0.0882,0.18742 -0.0992,0.18741 q -0.23151,0.47405 -0.28664,0.73863 -0.0331,0.12127 -0.0331,0.22049 0,0.0551 0.011,0.0992 0.011,0.0882 0.0992,0.11025 0.0551,-0.011 0.11025,-0.0441 0.0772,-0.0551 0.17639,-0.13229 0.16536,-0.13229 0.3638,-0.33073 z m 5.86494,-1.47726 q 0.022,0 0.0551,0.0441 0.0441,0.0441 0.11024,0.12127 0.0551,0.0772 0.0882,0.13229 0.022,0.0441 0.022,0.0661 v 0.011 l -0.50711,0.38585 -0.4961,0.4079 q -0.63941,0.50712 -1.04731,0.79375 -0.61736,0.44097 -1.1355,0.68351 -0.68351,0.3197 -1.28985,0.34175 h -0.0551 q -0.33073,-0.011 -0.57326,-0.16536 -0.29766,-0.17639 -0.4079,-0.52917 -0.0772,-0.27561 -0.0772,-0.58429 v -0.14332 l -0.22049,0.23151 q -0.20946,0.23151 -0.39688,0.37483 -0.12126,0.0992 -0.23151,0.16537 l -0.0661,0.0441 -0.0772,0.0331 q -0.0882,0.0331 -0.18742,0.0441 h -0.011 q -0.17639,0 -0.35278,-0.0992 -0.15434,-0.0992 -0.24253,-0.2756 -0.12127,-0.23151 -0.15434,-0.58429 v -0.0992 q 0,-0.51814 0.19843,-0.95912 0.20947,-0.46302 0.63941,-0.83784 0.51815,-0.42995 1.03629,-0.44098 0.0992,0.011 0.19844,0.0662 0.0882,0.0661 0.15434,0.14331 0.0882,0.12127 0.15434,0.29766 l 0.011,0.0331 q 0.12127,-0.3197 0.28663,-0.46302 0.12127,-0.11024 0.24254,-0.11024 0.0992,0 0.20946,0.0662 0.25356,0.14331 0.25356,0.34175 0,0.0331 -0.011,0.0662 -0.022,0.0772 -0.0882,0.22048 l -0.0661,0.11024 -0.0662,0.1323 q -0.0331,0.0772 -0.12127,0.25356 l -0.0661,0.14331 -0.0772,0.15434 q -0.17639,0.38585 -0.28664,0.71658 -0.11024,0.34176 -0.11024,0.60634 0,0.11024 0.022,0.20946 0.0441,0.17639 0.17639,0.27561 0.12127,0.0882 0.34175,0.0882 0.50712,-0.011 1.11346,-0.29765 0.47404,-0.22049 1.06936,-0.63941 0.38585,-0.26459 1.01423,-0.7717 l 0.50712,-0.4079 z"
           id="path10129" />
      </g>
      <g
         aria-label="Andras"
         id="text319"
         style="font-size:22.5778px;font-family:Belliss;-inkscape-font-specification:Belliss;stroke-width:0.960033;stroke-linecap:round;stroke-linejoin:round;stroke-miterlimit:3">
        <path
           d="m 111.99131,160.74317 q 1.34496,-0.27561 2.50252,-0.58429 l 0.12126,-0.41892 q 0.44098,-1.5875 1.02526,-3.45061 0.19844,-0.62839 0.48507,-1.54341 l 0.12127,-0.3638 0.11025,-0.3638 q 0.13229,-0.41893 0.23151,-0.69454 1.80798,-5.65547 2.25998,-8.09184 0.25356,-1.36702 0.25356,-2.33716 0,-0.76068 -0.15434,-1.28984 0,0.29765 -0.0551,0.70555 -0.16537,1.06936 -0.74966,2.60174 -0.83784,2.09462 -2.37022,4.79558 -2.61277,4.54202 -6.04133,8.77535 -1.30087,1.59853 -2.59071,3.02067 2.74505,-0.34176 4.8507,-0.76068 z m -9.63526,4.59714 q 1.54341,-1.44419 3.11988,-3.175 l -1.57647,0.16536 -1.5875,0.16537 q -3.252178,0.33073 -4.861728,0.58428 -3.06476,0.4961 -4.67431,1.23473 -1.267797,0.58429 -1.852086,1.38906 -0.341754,0.47405 -0.474045,1.02526 -0.08819,0.35278 -0.08819,0.76068 0,0.18742 0.02205,0.38585 0.05512,0.59532 0.308681,1.09141 0.253559,0.50712 0.71658,0.84887 0.837848,0.63941 2.171791,0.68351 h 0.06615 q 1.102431,-0.0661 2.436374,-0.65043 1.058334,-0.47405 2.24896,-1.25678 1.874133,-1.24574 4.023873,-3.25217 z m 14.83873,7.17683 q 0.62839,0.14332 0.62839,0.27561 0,0.19844 -0.60634,0.27561 h -0.14331 q -0.29766,0 -0.56224,-0.0331 -0.47405,-0.0661 -0.91502,-0.25356 -1.19063,-0.48507 -1.76389,-1.65364 l -0.15434,-0.29766 -0.12127,-0.31971 q -0.0551,-0.13229 -0.0992,-0.3197 l -0.0882,-0.33073 q -0.16537,-0.7717 -0.18742,-1.35599 -0.022,-0.33073 -0.022,-0.68351 0,-0.82682 0.11025,-1.79696 0.11024,-1.02526 0.35277,-2.27101 0.28664,-1.44419 0.72761,-3.07579 -1.05833,0.28664 -2.27101,0.52917 -2.30408,0.46302 -5.42396,0.82682 -1.99541,2.14975 -4.01285,3.93569 -2.19384,1.92925 -4.112075,3.1309 -1.223699,0.76068 -2.304082,1.2237 -1.400089,0.57327 -2.557642,0.63941 h -0.110243 q -1.477258,-0.0441 -2.436374,-0.7717 -0.540192,-0.4079 -0.848872,-1.01424 -0.286633,-0.56224 -0.352779,-1.25677 -0.02205,-0.22049 -0.02205,-0.42995 0,-0.46302 0.09922,-0.87092 0.15434,-0.63941 0.551216,-1.19063 0.661459,-0.90399 2.028474,-1.5434 1.675696,-0.74965 4.795578,-1.2678 1.091407,-0.16536 2.447398,-0.3197 l 1.2237,-0.14332 1.2237,-0.13229 1.84106,-0.18741 1.84106,-0.19844 q 1.59853,-1.77492 3.38447,-4.01285 3.54983,-4.45383 5.96415,-8.44463 1.55443,-2.56866 2.38125,-4.56407 0.57327,-1.42213 0.73863,-2.42535 0.0441,-0.30868 0.0441,-0.57326 0,-0.35278 -0.0772,-0.60634 -0.0772,-0.26458 -0.26458,-0.42995 -0.15434,-0.12126 -0.34176,-0.17638 l -0.0882,-0.011 -0.0441,-0.011 -0.0662,-0.011 q -0.0661,-0.022 -0.18741,-0.022 h -0.022 q -1.88516,0.022 -3.71519,0.44098 -0.70556,0.15434 -1.81901,0.50712 -1.11346,0.38585 -1.7639,0.67248 -3.75929,1.65365 -6.08542,4.36563 -0.60634,0.69453 -1.10243,1.51033 -0.48507,0.79375 -0.80478,1.68672 -0.0772,0.18741 -0.14331,0.44097 l -0.12127,0.452 -0.0992,0.452 -0.0331,0.23151 -0.0221,0.23151 q -0.0441,0.44097 -0.0441,0.83785 0,0.55121 0.0882,0.99218 0.19844,1.02527 0.91502,1.356 0.33073,0.15434 0.73863,0.15434 0.42994,0 0.94809,-0.16537 0.88194,-0.29766 1.57647,-0.89297 0.18742,-0.16536 0.31971,-0.3197 l 0.0661,-0.0882 -0.0992,-0.0882 -0.022,-0.0331 -0.0331,-0.0331 q -0.0331,-0.0551 -0.0551,-0.13229 -0.011,-0.0331 -0.011,-0.0661 v -0.0772 q 0.0221,-0.0882 0.0992,-0.14331 0.0441,-0.0441 0.0882,-0.0551 l 0.0441,-0.011 0.0221,-0.011 q 0.0551,-0.011 0.11024,-0.011 0.0551,0 0.12127,0.011 0.13229,0.011 0.23151,0.0441 l 0.0441,0.022 0.0331,0.0331 0.0441,0.0661 q 0.0441,0.0551 0.0441,0.14332 0,0.0882 -0.0551,0.23151 l -0.0441,0.11024 -0.022,0.0441 -0.0221,0.0221 -0.0331,0.0661 -0.0331,0.0551 -0.0882,0.11025 -0.0772,0.0992 q -0.14332,0.17639 -0.3638,0.3638 -0.77171,0.66146 -1.73082,0.98116 -0.52917,0.17639 -1.00322,0.18742 h -0.11024 q -0.51814,0 -0.92604,-0.19844 -0.4961,-0.22049 -0.80478,-0.71658 -0.24253,-0.37483 -0.3638,-0.95912 -0.11024,-0.51814 -0.11024,-1.14653 0,-0.39687 0.0441,-0.83784 l 0.0331,-0.24254 0.13229,-0.7276 0.13229,-0.47405 q 0.0772,-0.26458 0.15434,-0.46302 0.33073,-0.93707 0.84887,-1.77492 0.50712,-0.84887 1.13551,-1.57647 2.4033,-2.78916 6.26181,-4.47588 0.67248,-0.30868 1.80799,-0.69453 1.12448,-0.3638 1.86311,-0.51814 1.89618,-0.44097 3.84749,-0.46302 l 0.0551,0.011 q 0.69453,0.0661 1.12448,0.35278 0.54019,0.3638 0.8158,1.05834 0.2756,0.67248 0.29765,1.68672 v 0.18741 q 0,0.98116 -0.20946,2.23794 -0.41892,2.56866 -2.14974,8.12492 -0.0882,0.29765 -0.22049,0.69453 l -0.22048,0.7276 q -0.29766,0.95912 -0.47405,1.52136 -0.57326,1.87413 -0.99219,3.40651 0.65044,-0.20946 1.25677,-0.42995 2.51355,-0.92604 4.26642,-2.25998 0.0882,-0.0661 0.16536,-0.0661 0.0992,0 0.17639,0.11025 0.0551,0.0772 0.0551,0.14331 0,0.0992 -0.11024,0.18742 -1.80799,1.37804 -4.38768,2.32613 -0.74965,0.27561 -1.57648,0.51814 -0.50712,1.87413 -0.8158,3.41754 -0.23151,1.20165 -0.34175,2.18281 -0.11024,0.97014 -0.11024,1.77492 0,0.28663 0.011,0.55121 0.0662,1.27882 0.44097,2.17179 l 0.0661,0.12127 0.0551,0.12127 q 0.0661,0.13229 0.13229,0.22049 l 0.0662,0.11024 0.23151,0.29766 q 0.0331,0.0441 0.0882,0.0882 l 0.0882,0.0882 0.0772,0.0882 q 0.0551,0.0441 0.0992,0.0661 l 0.0882,0.0772 0.0992,0.0661 q 0.11024,0.0882 0.18741,0.12127 0.35278,0.19844 0.78273,0.35278 0.16536,0.0551 0.35278,0.0992 l 0.16536,0.0441 z"
           style="font-family:Bellisia;-inkscape-font-specification:Bellisia"
           id="path10132" />
        <path
           d="m 132.49654,157.0831 h 0.011 q 0.0331,0 0.16536,0.15434 0.12127,0.16536 0.12127,0.19843 v 0.011 l -0.74965,0.62839 -0.48507,0.40789 q -0.56224,0.47405 -1.00321,0.78273 -0.60634,0.4079 -1.15756,0.62839 -0.66146,0.26458 -1.30087,0.27561 l -0.011,-0.011 q -0.70556,0 -1.21268,-0.14332 -0.66146,-0.17638 -1.06935,-0.61736 -0.35278,-0.38585 -0.51815,-0.94809 -0.0882,-0.30868 -0.13229,-0.62838 -0.011,-0.0551 -0.0221,-0.0992 v -0.0882 l -0.011,-0.17639 v -0.16536 q -0.011,-0.0221 -0.0331,-0.0331 -0.011,-0.011 -0.0331,-0.011 -0.0221,0 -0.0441,0.011 -0.0661,0.011 -0.13229,0.0661 -0.011,0 -0.0221,-0.011 l -0.19843,0.16536 q -0.20947,0.16537 -0.452,0.41893 -0.37483,0.3638 -0.8599,0.91501 l -0.4079,0.48507 -0.20946,0.24254 -0.022,0.0221 q -0.11024,0.25356 -0.23151,0.35278 -0.0992,0.0772 -0.20946,0.0772 -0.0882,0 -0.18741,-0.0441 -0.28664,-0.12127 -0.28664,-0.30868 v -0.0441 q 0.011,-0.0882 0.0661,-0.22049 l 0.11024,-0.24253 q 0.68351,-1.64262 0.8158,-2.21589 0.0221,-0.0772 0.0331,-0.15434 l 0.011,-0.0441 v -0.0331 q -0.38585,0.0662 -0.91502,0.39688 -0.39687,0.25356 -1.04731,0.76067 -0.0221,0 -0.15434,-0.16536 -0.13229,-0.16536 -0.13229,-0.19844 0.66146,-0.52917 1.08038,-0.79375 0.7717,-0.47404 1.34497,-0.49609 l 0.011,0.022 q 0.17639,0.0551 0.28664,0.19843 0.13229,0.20947 0.13229,0.56224 v 0.0441 q 0,0.4961 -0.25356,1.27882 0.37482,-0.41892 0.69453,-0.73863 0.25356,-0.25356 0.48507,-0.44097 0.3197,-0.26458 0.56224,-0.39688 0.16536,-0.0661 0.27561,-0.0992 0.0661,-0.011 0.12127,-0.011 0.0661,0 0.12126,0.0221 0.12127,0.0331 0.20946,0.12127 0.0992,0.0992 0.16537,0.25356 0.14332,0.2756 0.16536,0.58429 l 0.022,0.30868 q 0.011,0.19843 0.0331,0.35277 0.0772,0.42995 0.2756,0.71658 0.24254,0.37483 0.72761,0.55122 0.46302,0.17639 1.06936,0.17639 1.01423,-0.011 2.18281,-0.8158 0.41893,-0.28663 0.97014,-0.76068 l 0.47405,-0.4079 z"
           style="font-family:Bellisia;-inkscape-font-specification:Bellisia"
           id="path10134" />
        <path
           d="m 145.80289,145.97059 q 0.011,-0.0772 0.011,-0.15435 0,-0.45199 -0.27561,-0.7276 -0.28663,-0.29766 -0.89297,-0.31971 -0.0331,0 -0.0551,-0.0331 -0.0331,0.0221 -0.0661,0.0221 -1.15756,0.0551 -2.43638,0.94809 -0.98116,0.69453 -1.96233,1.84106 -1.56545,1.83004 -2.95451,4.56407 -0.66146,1.28984 -1.10244,2.46945 -0.48507,1.26779 -0.7276,2.3592 1.46623,-1.03629 3.27422,-2.4915 1.97335,-1.5875 3.43959,-3.02066 0.89297,-0.87092 1.5875,-1.64262 0.84887,-0.98117 1.36702,-1.79696 l 0.15434,-0.24254 0.26458,-0.48507 0.11024,-0.25356 q 0.25356,-0.61736 0.26459,-1.03628 z m -12.38031,13.11893 q 0.18741,-0.19844 0.41892,-0.46302 l 0.4079,-0.47404 0.011,-0.011 -0.011,-0.28663 -0.0221,-0.27561 q -0.0441,-0.35278 -0.11024,-0.56224 -0.0441,-0.14332 -0.0992,-0.20946 -0.0441,-0.0441 -0.0772,-0.0551 -0.3638,0.0551 -0.68351,0.54019 -0.12126,0.17639 -0.25356,0.452 l -0.22048,0.46302 q -0.28663,0.57326 -0.35278,0.93706 -0.022,0.1323 -0.022,0.23151 0,0.11025 0.022,0.18742 0.0441,0.14331 0.17639,0.16536 0.0661,-0.022 0.15434,-0.0772 0.0992,-0.0551 0.23151,-0.15434 0.19844,-0.16536 0.42995,-0.4079 z m 12.78821,-13.7363 q 0.0661,0.24254 0.0661,0.47405 0,0.0882 -0.011,0.17639 -0.011,0.48507 -0.29766,1.1796 l -0.12127,0.27561 -0.0661,0.13229 -0.0772,0.13229 -0.14332,0.26459 -0.15434,0.24253 q -0.54019,0.8599 -1.42214,1.86311 -0.69453,0.78273 -1.59852,1.66467 -1.48829,1.44419 -3.47266,3.05374 -2.05053,1.66467 -3.69315,2.78915 -0.0772,0.46302 -0.0882,0.88194 -0.011,0.16537 -0.011,0.31971 0,0.51814 0.11025,0.97014 0.0772,0.34175 0.20946,0.58429 0.15434,0.28663 0.37482,0.47404 0.41893,0.38586 1.11346,0.4079 0.87092,0 1.91823,-0.42994 0.84887,-0.34176 1.78594,-0.95912 0.74965,-0.49609 1.64262,-1.2237 l 0.39688,-0.33073 0.39688,-0.34175 q 0.48507,-0.4079 1.01423,-0.82683 h 0.011 q 0.0551,0 0.16536,0.16537 0.11024,0.14331 0.11024,0.19844 0,0.011 -0.011,0.022 -0.50712,0.39687 -0.99219,0.80477 l -0.39687,0.33073 -0.39688,0.34175 q -0.91502,0.74966 -1.68672,1.24575 -0.97014,0.65044 -1.86311,1.01424 -1.1355,0.452 -2.09462,0.46302 h -0.0221 q -0.88194,-0.0331 -1.44418,-0.54019 -0.29766,-0.25356 -0.48507,-0.61736 -0.18742,-0.33073 -0.28664,-0.70556 -0.15434,-0.56224 -0.16536,-1.30087 l -0.37483,0.42995 q -0.20946,0.24253 -0.38585,0.42995 -0.26458,0.27561 -0.47404,0.45199 -0.15434,0.12127 -0.28664,0.19844 -0.0992,0.0551 -0.16536,0.0882 -0.0992,0.0331 -0.20946,0.0551 h -0.011 q -0.20946,0 -0.39687,-0.11024 -0.17639,-0.12127 -0.27561,-0.31971 -0.14332,-0.27561 -0.16537,-0.69453 v -0.0992 q 0,-0.60634 0.24254,-1.14653 0.26458,-0.56224 0.76068,-1.01424 0.25356,-0.23151 0.52916,-0.3638 0.31971,-0.16536 0.63942,-0.17639 h 0.0441 q 0.24254,0.0331 0.38585,0.23151 0.11025,0.14332 0.17639,0.35278 0.0441,0.12127 0.0662,0.25356 l 0.0331,-0.18741 q 0.20946,-1.34497 0.71658,-2.77813 0.47405,-1.35599 1.14653,-2.62379 1.37804,-2.59071 3.19705,-4.50894 1.09141,-1.12448 2.1277,-1.78594 1.38906,-0.89297 2.65686,-0.93707 0.0551,0 0.0882,0.0331 0.0331,-0.0331 0.0661,-0.0331 0.3638,0.022 0.63941,0.11024 0.34175,0.11025 0.57326,0.35278 0.24254,0.24254 0.34176,0.59531 z"
           style="font-family:Bellisia;-inkscape-font-specification:Bellisia"
           id="path10136" />
        <path
           d="m 145.4942,155.76018 0.0221,0.011 0.16537,-0.18741 q 0.50712,-0.65044 0.69453,-1.12448 0.0882,-0.20946 0.0882,-0.35278 0,-0.0882 -0.0331,-0.14331 -0.0221,-0.0661 -0.12127,-0.0992 -0.0992,-0.0441 -0.25356,-0.0441 -0.54019,0.0441 -0.8158,0.54019 -0.14331,0.26458 -0.17638,0.55122 -0.011,0.0992 -0.011,0.17639 0,0.19843 0.0661,0.34175 0.0992,0.19844 0.37482,0.33073 z m 6.59255,1.34497 h 0.011 q 0.0441,0 0.16536,0.16536 0.11025,0.14332 0.11025,0.19844 0,0.011 -0.011,0.0221 -0.33073,0.24253 -0.74965,0.58429 l -1.45521,1.27882 -0.73863,0.63941 q -0.91502,0.78272 -1.53238,1.23472 -0.46302,0.33073 -0.83785,0.54019 -0.28663,0.16537 -0.46302,0.23151 -0.29766,0.11025 -0.54019,0.13229 l -0.0221,-0.011 -0.011,0.011 q -0.25356,-0.011 -0.42995,-0.0551 -0.24254,-0.0661 -0.42995,-0.22048 -0.19844,-0.16537 -0.27561,-0.41893 -0.0551,-0.19844 -0.0551,-0.452 0.0221,-0.3638 0.14332,-0.76067 0.0441,-0.16537 0.11024,-0.34176 l 0.12127,-0.33073 q 0.29765,-0.73863 0.70555,-1.4993 l 0.011,-0.022 q 0.0992,-0.18742 0.22048,-0.39688 l 0.0221,-0.0441 q 0.12127,-0.24254 0.18742,-0.44098 0.0661,-0.20946 0.0661,-0.35278 v -0.0661 q -0.0221,-0.14332 -0.12127,-0.19844 -0.12126,-0.0551 -0.33072,-0.11024 l -0.30869,-0.0992 q -0.76067,0.83785 -1.68672,1.51033 h -0.011 q -0.0331,0 -0.15434,-0.16536 -0.11024,-0.16537 -0.11024,-0.20947 v -0.011 q 0.8158,-0.58429 1.4993,-1.31189 -0.34175,-0.19844 -0.48507,-0.4961 -0.12126,-0.24253 -0.12126,-0.54019 0,-0.12127 0.022,-0.25356 0.0441,-0.37483 0.23152,-0.71658 0.19843,-0.3638 0.52916,-0.56224 0.30868,-0.19844 0.68351,-0.22049 h 0.0772 l 0.011,0.011 q 0.18742,0.011 0.34176,0.0661 0.27561,0.0992 0.38585,0.34176 0.0661,0.14331 0.0661,0.3197 0,0.0772 -0.011,0.15434 -0.022,0.19844 -0.0992,0.38585 -0.22048,0.5402 -0.7717,1.24575 l -0.0551,0.0661 0.26458,0.0882 0.17639,0.0551 0.0551,0.0221 q 0.16537,0.0772 0.28663,0.16537 0.18742,0.13229 0.28664,0.33073 l 0.0661,0.14331 0.011,0.011 0.0221,0.0772 q 0.011,0.0331 0.011,0.0551 0.011,0.0441 0.011,0.0992 l -0.011,0.0772 q -0.011,0.13229 -0.0331,0.28663 -0.0772,0.35278 -0.26459,0.68351 -0.0772,0.14331 -0.22048,0.3638 l -0.12127,0.19844 -0.14332,0.22048 q -0.3638,0.58429 -0.59531,1.01424 -0.17639,0.34176 -0.27561,0.58429 -0.13229,0.33073 -0.16536,0.60634 -0.011,0.0551 -0.011,0.11024 0,0.24254 0.1323,0.37483 0.16536,0.15434 0.55121,0.15434 0.16537,-0.011 0.39688,-0.0992 0.14331,-0.0551 0.4079,-0.19844 0.34175,-0.19844 0.78272,-0.51814 0.59532,-0.42995 1.49931,-1.20165 l 0.73863,-0.63941 1.09141,-0.95912 0.37482,-0.3197 q 0.41893,-0.35278 0.77171,-0.61736 z"
           style="font-family:Bellisia;-inkscape-font-specification:Bellisia"
           id="path10138" />
        <path
           d="m 152.99074,158.59343 q 0.14332,-0.15434 0.33073,-0.37483 l 0.33073,-0.38585 -0.011,-0.23151 -0.011,-0.20946 q -0.0331,-0.28663 -0.0882,-0.452 -0.0331,-0.11024 -0.0772,-0.15434 -0.0221,-0.0331 -0.0331,-0.0331 -0.27561,0.0551 -0.50712,0.44097 -0.0882,0.13229 -0.18741,0.3638 l -0.0882,0.18742 -0.0992,0.18741 q -0.23151,0.47404 -0.28664,0.73863 -0.0331,0.12127 -0.0331,0.22048 0,0.0551 0.011,0.0992 0.011,0.0882 0.0992,0.11025 0.0551,-0.011 0.11025,-0.0441 0.0772,-0.0551 0.17639,-0.13229 0.16536,-0.13229 0.3638,-0.33073 z m 5.86494,-1.47726 q 0.022,0 0.0551,0.0441 0.0441,0.0441 0.11024,0.12126 0.0551,0.0772 0.0882,0.1323 0.022,0.0441 0.022,0.0661 v 0.011 l -0.50711,0.38585 -0.4961,0.4079 q -0.63941,0.50712 -1.04731,0.79375 -0.61736,0.44097 -1.1355,0.68351 -0.68351,0.3197 -1.28985,0.34175 h -0.0551 q -0.33073,-0.011 -0.57326,-0.16537 -0.29766,-0.17638 -0.4079,-0.52916 -0.0772,-0.27561 -0.0772,-0.58429 v -0.14332 l -0.22049,0.23151 q -0.20946,0.23151 -0.39688,0.37483 -0.12126,0.0992 -0.23151,0.16536 l -0.0661,0.0441 -0.0772,0.0331 q -0.0882,0.0331 -0.18742,0.0441 h -0.011 q -0.17639,0 -0.35278,-0.0992 -0.15434,-0.0992 -0.24253,-0.2756 -0.12127,-0.23152 -0.15434,-0.58429 v -0.0992 q 0,-0.51815 0.19843,-0.95912 0.20947,-0.46302 0.63941,-0.83785 0.51815,-0.42994 1.03629,-0.44097 0.0992,0.011 0.19844,0.0661 0.0882,0.0661 0.15434,0.14331 0.0882,0.12127 0.15434,0.29766 l 0.011,0.0331 q 0.12127,-0.3197 0.28663,-0.46302 0.12127,-0.11024 0.24254,-0.11024 0.0992,0 0.20946,0.0661 0.25356,0.14332 0.25356,0.34176 0,0.0331 -0.011,0.0661 -0.0221,0.0772 -0.0882,0.22049 l -0.0661,0.11024 -0.0662,0.1323 q -0.0331,0.0772 -0.12127,0.25355 l -0.0661,0.14332 -0.0772,0.15434 q -0.17639,0.38585 -0.28664,0.71658 -0.11024,0.34176 -0.11024,0.60634 0,0.11024 0.0221,0.20946 0.0441,0.17639 0.17639,0.27561 0.12127,0.0882 0.34175,0.0882 0.50712,-0.011 1.11346,-0.29765 0.47404,-0.22049 1.06936,-0.63941 0.38585,-0.26459 1.01423,-0.77171 l 0.50712,-0.40789 z"
           style="font-family:Bellisia;-inkscape-font-specification:Bellisia"
           id="path10140" />
        <path
           d="m 158.44777,160.61088 q 0.16537,-0.17639 0.23152,-0.44097 l -0.0551,0.011 q -0.30868,0.0882 -0.47404,0.14332 -0.26459,0.0992 -0.3638,0.19843 -0.0551,0.0551 -0.0772,0.12127 -0.011,0.0331 -0.011,0.0662 0,0.0331 0.011,0.0661 0.011,0.0551 0.0441,0.0882 0.0331,0.0221 0.0882,0.0331 0.37482,-0.0221 0.60633,-0.28663 z m 1.21268,-4.75148 -0.0992,0.0992 q -0.0551,0.0551 -0.11024,0.12126 -0.13229,0.17639 -0.23151,0.42995 -0.0992,0.27561 -0.12127,0.60634 0.41892,-0.33073 0.66146,-0.55122 0.3638,-0.34175 0.38585,-0.58429 0.011,-0.0441 0.011,-0.0882 0,-0.0992 -0.0441,-0.15434 -0.0441,-0.0551 -0.15434,-0.0662 -0.0331,0 -0.0772,0.0331 l -0.0331,0.0221 -0.0441,0.0331 q -0.0661,0.0441 -0.14332,0.0992 z m 4.92787,1.2237 q 0,-0.011 0.011,-0.011 0.011,0 0.0551,0.0441 0.0551,0.0441 0.11024,0.12127 0.0551,0.0772 0.0772,0.14331 0.0221,0.0441 0.0221,0.0551 0,0.0221 -0.011,0.0221 -2.17179,1.48829 -4.22231,2.17179 -0.48507,0.16537 -1.2237,0.35278 l -0.0441,0.16537 q -0.16536,0.55121 -0.56224,0.87092 -0.4079,0.33073 -0.95911,0.35278 h -0.011 q -0.20946,-0.022 -0.3638,-0.14332 -0.16536,-0.12127 -0.22049,-0.34175 -0.011,-0.0772 -0.011,-0.16537 0,-0.0992 0.0221,-0.20946 0.0441,-0.18741 0.19844,-0.31971 0.11024,-0.11024 0.26458,-0.18741 0.0992,-0.0551 0.26458,-0.12127 0.18742,-0.0661 0.51815,-0.15434 l 0.22048,-0.0551 v -0.0772 q -0.011,-0.16536 -0.0551,-0.3638 -0.0331,-0.13229 -0.12127,-0.38585 l -0.0661,-0.20946 -0.0551,-0.22049 q -0.16537,-0.59531 -0.16537,-1.04731 v -0.14332 q 0.0221,-0.51814 0.20946,-0.93706 0.14332,-0.36381 0.37483,-0.61737 0.18741,-0.19843 0.4079,-0.3197 0.16536,-0.0882 0.30868,-0.13229 0.11024,-0.0221 0.20946,-0.0221 0.0221,-0.011 0.0441,-0.011 0.0221,0 0.0441,0.011 h 0.0551 q 0.16536,0 0.29766,0.0551 0.16536,0.0551 0.26458,0.19844 0.11024,0.13229 0.13229,0.29765 0.011,0.0662 0.011,0.14332 0,0.0772 -0.011,0.15434 -0.0331,0.25356 -0.19844,0.4961 -0.11024,0.15434 -0.33073,0.35277 -0.20946,0.19844 -0.47404,0.41893 l -0.48507,0.38585 q 0.0441,0.24253 0.13229,0.56224 l 0.11024,0.41892 q 0.0662,0.25356 0.0882,0.47405 0.011,0.15434 0.011,0.33073 0.59531,-0.16537 1.02526,-0.30868 1.97336,-0.65044 4.10105,-2.09462 z"
           style="font-family:Bellisia;-inkscape-font-specification:Bellisia"
           id="path10142" />
      </g>
      <g
         aria-label="AND"
         id="text323"
         style="font-size:3.175px;font-family:'PT Serif Caption';-inkscape-font-specification:'PT Serif Caption';letter-spacing:0.529167px;stroke-width:0.3;stroke-linecap:round;stroke-linejoin:round;stroke-miterlimit:3">
        <path
           d="m 119.25272,131.67004 v 0.0635 h -0.83503 v -0.0635 h 0.18733 l -0.21273,-0.44133 h -0.64135 l -0.18415,0.44133 h 0.25083 v 0.0635 h -0.54293 v -0.0635 h 0.21273 l 0.72707,-1.74625 h 0.0794 l 0.80645,1.74625 z m -1.4732,-0.508 h 0.58102 l -0.31115,-0.6477 z"
           style="font-family:'Rozha One';-inkscape-font-specification:'Rozha One'"
           id="path10145" />
        <path
           d="m 120.13113,131.67004 h 0.254 v 0.0635 h -0.508 v -0.0635 h 0.1905 v -1.5113 q -0.1016,-0.1397 -0.1905,-0.1397 v -0.0635 h 0.59373 l 0.89217,1.05727 v -0.99377 h -0.254 v -0.0635 h 0.53975 v 0.0635 h -0.22225 v 1.74625 h -0.0635 l -1.2319,-1.52718 z"
           style="font-family:'Rozha One';-inkscape-font-specification:'Rozha One'"
           id="path10147" />
        <path
           d="m 123.1622,131.73354 h -0.79375 v -0.0635 h 0.15875 v -1.651 h -0.15875 v -0.0635 h 0.79375 q 0.23495,0 0.42227,0.0794 0.1905,0.0762 0.30798,0.2032 0.23812,0.26353 0.23812,0.5969 0,0.45085 -0.23812,0.67628 -0.23813,0.22225 -0.73025,0.22225 z m -0.15875,-0.0635 q 0.3429,0 0.4953,-0.18415 0.1524,-0.18733 0.1524,-0.60643 0,-0.42227 -0.1651,-0.64135 -0.1651,-0.21907 -0.4826,-0.21907 z"
           style="font-family:'Rozha One';-inkscape-font-specification:'Rozha One'"
           id="path10149" />
      </g>
      <g
         aria-label="Olga"
         id="text327"
         style="font-size:22.5778px;font-family:Bellisia;-inkscape-font-specification:Bellisia;stroke-width:0.3;stroke-linecap:round;stroke-linejoin:round;stroke-miterlimit:3">
        <path
           d="m 99.604207,113.31791 q 1.466233,-2.63481 2.248963,-5.3027 0.80477,-2.71198 0.80477,-5.11528 0,-0.29766 -0.011,-0.58429 -0.0661,-1.60955 -0.46302,-2.822225 l -0.11025,-0.33073 -0.0661,-0.165365 -0.0772,-0.165364 q -0.0441,-0.143317 -0.14332,-0.33073 l -0.15434,-0.319705 q -0.41892,-0.727605 -0.80477,-1.157553 -0.859901,-1.036286 -2.282038,-1.631599 -1.234723,-0.496094 -2.789152,-0.540192 l -0.08819,-0.01102 -0.07717,0.01102 q -2.590714,0.05512 -4.994015,1.179602 -2.237936,1.04731 -4.233338,2.932468 -1.807988,1.730823 -3.252173,4.001823 -1.389064,2.18282 -2.304082,4.63022 -0.948092,2.52457 -1.256772,4.96094 -0.121268,1.03629 -0.121268,1.9954 0,1.65365 0.374827,3.06476 0.220486,0.83785 0.573264,1.54341 1.466234,-0.74966 3.737244,-1.52136 1.885158,-0.62839 4.762505,-1.41111 l 2.392276,-0.62839 2.392277,-0.61736 q 2.888371,-0.74965 4.773529,-1.31189 z m -3.47266,4.92787 q 1.774915,-2.02848 3.130906,-4.33256 l -0.694532,0.20946 q -1.896183,0.56224 -4.784554,1.3119 l -2.392276,0.61736 -2.392277,0.62838 q -2.855298,0.77171 -4.729432,1.40009 -2.237936,0.76068 -3.671097,1.48829 0.09922,0.18741 0.209462,0.34175 l 0.165364,0.25356 0.198438,0.25356 q 0.07717,0.0992 0.198438,0.23151 l 0.209462,0.23151 q 0.518143,0.50712 0.97014,0.79375 1.04731,0.69453 2.315106,0.95912 0.551216,0.12126 1.124481,0.16536 0.01102,-0.0441 0.0441,-0.0992 0.07717,-0.11024 0.15434,-0.17639 l 0.07717,-0.0551 q 0.0441,-0.0221 0.09922,-0.0331 0.03307,-0.011 0.06615,-0.011 0.09922,0 0.176389,0.0551 0.07717,0.0551 0.132292,0.12126 l 0.06615,0.11025 q 0.0441,0.11024 0.06615,0.22048 l 0.01102,0.0551 v 0.11025 l -0.02205,0.0441 v 0.0331 l -0.02205,0.0221 -0.01102,0.022 q -0.0441,0.0551 -0.09922,0.0772 h -0.01103 l -0.02205,0.011 h -0.0441 q -0.03307,0.011 -0.0441,0.011 h -0.03307 l -0.165364,-0.011 -0.683508,-0.0441 -0.341754,-0.0441 -0.341754,-0.0551 -0.330729,-0.0551 q -1.400088,-0.29766 -2.546617,-1.03628 -1.113456,-0.71659 -1.951304,-1.96233 l -0.154341,-0.25356 -0.286632,0.16536 q -0.540192,0.31971 -1.003213,0.67249 -0.507119,0.39687 -0.870921,0.80477 -0.859897,0.95912 -0.89297,2.0836 v 0.12126 q 0,0.4961 0.25356,0.92605 0.275608,0.44097 0.815799,0.74965 0.915018,0.51814 2.271009,0.61736 h 0.09922 q 1.433161,-0.011 2.998614,-0.27561 1.576478,-0.2756 2.91042,-0.73863 2.866322,-0.98116 5.335769,-2.723 2.42535,-1.69775 4.4428,-4.01285 z m 11.266853,-8.44463 q 0.0882,-0.0662 0.16536,-0.0662 0.0992,0 0.17639,0.0992 0.0551,0.0772 0.0551,0.14332 0,0.11024 -0.12126,0.19844 -0.89297,0.67248 -2.13872,1.31189 -1.01424,0.52917 -2.27101,1.02526 -1.27882,0.51815 -2.8112,1.02526 l -0.37483,0.65044 q -3.186025,5.49011 -8.213114,8.76433 -5.23655,3.45061 -11.421192,3.51676 l -0.07717,-0.011 h -0.05512 q -1.455209,-0.11024 -2.469447,-0.67248 -0.650434,-0.3638 -0.981164,-0.90399 -0.319705,-0.52917 -0.319705,-1.16858 v -0.15434 q 0.02205,-0.66146 0.297657,-1.27882 0.242535,-0.57327 0.705556,-1.09141 0.385851,-0.44097 0.937067,-0.87092 0.48507,-0.3638 1.058334,-0.70556 l 0.286632,-0.16536 q -0.451997,-0.84887 -0.738629,-1.86311 -0.418924,-1.56545 -0.418924,-3.35139 0,-1.00322 0.132292,-2.0836 0.319705,-2.62379 1.367015,-5.2586 1.003213,-2.48047 2.469447,-4.61919 1.554429,-2.25998 3.439587,-3.935679 2.083596,-1.830036 4.398702,-2.833249 1.234724,-0.529167 2.491496,-0.8158 1.289845,-0.275607 2.612763,-0.30868 0.0441,0 0.08819,0.01102 0.0441,-0.01102 0.09922,-0.01102 1.708769,0.05512 3.020662,0.584288 l 0.363803,0.165365 q 0.198437,0.08819 0.341754,0.176389 0.15434,0.07717 0.341753,0.198438 l 0.330733,0.209462 q 0.7276,0.540191 1.14653,1.058334 l 0.13229,0.143316 0.12127,0.154341 0.23151,0.319705 0.20946,0.33073 q 0.12127,0.198437 0.18741,0.341753 0.29766,0.518143 0.60634,1.433162 0.44097,1.400085 0.51814,3.042715 0.011,0.29765 0.011,0.60633 0,2.56867 -0.82683,5.44602 -0.66146,2.23793 -1.74184,4.3546 1.25677,-0.42995 2.32613,-0.8599 1.23472,-0.49609 2.23794,-1.01423 1.20165,-0.61736 2.07257,-1.2678 z"
           id="path10152" />
        <path
           d="m 108.78746,107.18839 q -0.48507,1.26779 -0.7276,2.3592 1.46623,-1.03628 3.27422,-2.49149 1.97335,-1.58751 3.43959,-3.02067 0.89297,-0.87092 1.5875,-1.64262 0.84887,-0.98116 1.37804,-1.79696 l 0.14331,-0.24254 0.26459,-0.485069 0.11024,-0.253559 q 0.25356,-0.617362 0.26458,-1.036286 0.011,-0.07717 0.011,-0.15434 0,-0.451997 -0.27561,-0.727605 -0.28663,-0.297657 -0.89297,-0.319705 -0.0331,0 -0.0551,-0.03307 -0.0331,0.02205 -0.0661,0.02205 -1.15755,0.05512 -2.42535,0.948092 -0.98116,0.694532 -1.97335,1.841057 -1.55443,1.83004 -2.95452,4.56407 -0.66146,1.28985 -1.10243,2.46945 z m 7.92649,2.62379 h 0.011 q 0.0551,0 0.16537,0.15434 0.11024,0.15434 0.11024,0.19843 0,0.022 -0.011,0.022 -0.30868,0.24254 -0.80477,0.66146 l -0.4079,0.34175 -0.4079,0.33073 q -0.92604,0.76068 -1.70877,1.27882 -0.99219,0.66146 -1.88516,1.03629 -1.14653,0.47405 -2.12769,0.48507 h -0.0221 q -0.88194,-0.0331 -1.44419,-0.54019 -0.29765,-0.25356 -0.48507,-0.61736 -0.18741,-0.33073 -0.28663,-0.70556 -0.16536,-0.62838 -0.16536,-1.47726 0.011,-0.67248 0.13229,-1.44418 0.20946,-1.34497 0.71658,-2.77813 0.47405,-1.35599 1.14653,-2.62379 1.37804,-2.59071 3.19705,-4.508944 1.09141,-1.12448 2.12769,-1.785939 1.38907,-0.89297 2.65686,-0.937067 0.0551,0 0.0882,0.03307 0.0331,-0.03307 0.0772,-0.03307 0.35278,0.02205 0.62839,0.110243 0.34175,0.110244 0.57326,0.352778 0.24253,0.242535 0.34175,0.595314 0.0662,0.264583 0.0662,0.518142 v 0.132292 q -0.0221,0.48507 -0.30868,1.179602 l -0.12127,0.275609 -0.13229,0.26458 -0.15434,0.26459 -0.15434,0.24253 q -0.54019,0.8599 -1.41111,1.86311 -0.70556,0.78273 -1.60955,1.66467 -1.48829,1.44419 -3.47266,3.05374 -2.05053,1.66467 -3.69315,2.78915 -0.0662,0.46302 -0.0882,0.88195 -0.011,0.14331 -0.011,0.2756 0,0.55122 0.11024,1.01424 0.0882,0.34175 0.22049,0.58429 0.15434,0.28663 0.3638,0.47405 0.41893,0.38585 1.11346,0.4079 0.89297,0 1.9513,-0.44098 0.84888,-0.3638 1.80799,-0.99219 0.76068,-0.50711 1.66467,-1.24574 l 0.4079,-0.34176 0.39688,-0.34175 q 0.49609,-0.41893 0.83785,-0.67248 z"
           id="path10154" />
        <path
           d="m 116.85726,114.50853 q 0.27561,-0.51814 0.54019,-1.11345 l -1.27882,0.58429 -0.8599,0.38585 q -0.47404,0.22048 -0.83784,0.4079 -0.47405,0.23151 -0.8158,0.44097 -0.42995,0.25356 -0.72761,0.51814 -0.35278,0.31971 -0.51814,0.66146 -0.17639,0.33073 -0.17639,0.74966 v 0.0441 q 0.022,0.42995 0.28663,0.70556 0.26459,0.26458 0.69453,0.28663 h 0.011 q 0.41892,-0.0441 0.76068,-0.19844 0.0772,-0.0331 0.17639,-0.0882 l 0.16536,-0.0882 0.30868,-0.22048 q 0.4961,-0.38585 0.98117,-0.99219 0.63941,-0.80478 1.28984,-2.0836 z m 0.83785,-3.30729 q 0.15434,-0.15434 0.34175,-0.37483 l 0.33073,-0.38585 -0.011,-0.23151 -0.0221,-0.20946 q -0.022,-0.28663 -0.0882,-0.452 -0.0331,-0.11024 -0.0772,-0.15434 -0.011,-0.0331 -0.022,-0.0331 -0.27561,0.0551 -0.50712,0.44097 -0.0882,0.13229 -0.19844,0.3638 l -0.17639,0.37483 q -0.23151,0.47405 -0.29766,0.73863 -0.022,0.11024 -0.022,0.19844 0,0.0661 0.011,0.12126 0.011,0.0882 0.0992,0.11025 0.0441,-0.011 0.11024,-0.0441 0.0772,-0.0551 0.17639,-0.13229 0.15434,-0.13229 0.35278,-0.33073 z m 4.99401,-1.47726 q 0.011,-0.011 0.0331,-0.011 0.0661,0 0.17639,0.14331 0.0882,0.12127 0.0882,0.18742 0,0.0331 -0.022,0.0551 -1.74184,1.30087 -3.45061,2.23793 -0.44097,0.24254 -0.98116,0.50712 -0.50712,1.04731 -1.05834,1.97335 -0.74965,1.25678 -1.46623,2.09463 -0.56224,0.65043 -1.10243,1.04731 -0.0661,0.0551 -0.17639,0.12126 l -0.17639,0.12127 -0.19844,0.11024 q -0.12127,0.0551 -0.20946,0.0992 -0.41893,0.18742 -0.94809,0.23151 h -0.0662 q -0.60634,-0.0221 -0.99219,-0.42995 -0.39687,-0.39687 -0.41892,-1.00321 v -0.0992 q 0,-0.49609 0.20946,-0.92604 0.20946,-0.41892 0.63941,-0.79375 0.33073,-0.29766 0.79375,-0.58429 0.35278,-0.20946 0.84887,-0.452 0.37483,-0.18741 0.84888,-0.4079 l 0.85989,-0.39687 q 1.04731,-0.46302 1.77492,-0.8158 0.27561,-0.61736 0.65043,-1.55443 l -0.30868,0.34175 q -0.22048,0.23151 -0.39687,0.37483 -0.13229,0.0992 -0.24254,0.16537 l -0.0661,0.0441 -0.0772,0.0331 q -0.0882,0.0331 -0.18742,0.0441 -0.18741,0 -0.35278,-0.0992 -0.15434,-0.0992 -0.25355,-0.2756 -0.12127,-0.23151 -0.14332,-0.58429 v -0.14332 q 0,-0.49609 0.18741,-0.91502 0.22049,-0.46302 0.65044,-0.83784 0.51814,-0.42995 1.02526,-0.44098 h 0.011 q 0.0992,0.011 0.18742,0.0662 0.0992,0.0661 0.16536,0.14331 0.0882,0.12127 0.15434,0.29766 0.0662,0.22049 0.0992,0.56224 l 0.011,0.0882 0.15435,-0.35278 0.14331,-0.38585 0.0662,-0.1323 0.0661,-0.15434 q 0.0772,-0.16536 0.16537,-0.2756 0.15434,-0.19844 0.34175,-0.19844 0.0772,0 0.15434,0.0331 0.25356,0.0992 0.25356,0.34176 v 0.0441 q -0.011,0.17639 -0.19844,0.63941 -0.61736,1.49931 -1.0914,2.54662 l 0.42994,-0.23151 q 1.6757,-0.90399 3.39549,-2.19384 z"
           id="path10156" />
        <path
           d="m 123.57107,111.20124 q 0.14332,-0.15434 0.33073,-0.37483 l 0.33073,-0.38585 -0.011,-0.23151 -0.011,-0.20946 q -0.0331,-0.28663 -0.0882,-0.452 -0.0331,-0.11024 -0.0772,-0.15434 -0.022,-0.0331 -0.0331,-0.0331 -0.27561,0.0551 -0.50712,0.44097 -0.0882,0.13229 -0.18741,0.3638 l -0.0882,0.18742 -0.0992,0.18741 q -0.23151,0.47405 -0.28664,0.73863 -0.0331,0.12127 -0.0331,0.22049 0,0.0551 0.011,0.0992 0.011,0.0882 0.0992,0.11025 0.0551,-0.011 0.11025,-0.0441 0.0772,-0.0551 0.17639,-0.13229 0.16536,-0.13229 0.3638,-0.33073 z m 5.86494,-1.47726 q 0.022,0 0.0551,0.0441 0.0441,0.0441 0.11024,0.12127 0.0551,0.0772 0.0882,0.13229 0.022,0.0441 0.022,0.0661 v 0.011 l -0.50711,0.38585 -0.4961,0.4079 q -0.63941,0.50712 -1.04731,0.79375 -0.61736,0.44097 -1.1355,0.68351 -0.68351,0.3197 -1.28985,0.34175 h -0.0551 q -0.33073,-0.011 -0.57326,-0.16536 -0.29766,-0.17639 -0.4079,-0.52917 -0.0772,-0.27561 -0.0772,-0.58429 v -0.14332 l -0.22049,0.23151 q -0.20946,0.23151 -0.39688,0.37483 -0.12126,0.0992 -0.23151,0.16537 l -0.0661,0.0441 -0.0772,0.0331 q -0.0882,0.0331 -0.18742,0.0441 h -0.011 q -0.17639,0 -0.35278,-0.0992 -0.15434,-0.0992 -0.24253,-0.2756 -0.12127,-0.23151 -0.15434,-0.58429 v -0.0992 q 0,-0.51814 0.19843,-0.95912 0.20947,-0.46302 0.63941,-0.83784 0.51815,-0.42995 1.03629,-0.44098 0.0992,0.011 0.19844,0.0662 0.0882,0.0661 0.15434,0.14331 0.0882,0.12127 0.15434,0.29766 l 0.011,0.0331 q 0.12127,-0.3197 0.28663,-0.46302 0.12127,-0.11024 0.24254,-0.11024 0.0992,0 0.20946,0.0662 0.25356,0.14331 0.25356,0.34175 0,0.0331 -0.011,0.0662 -0.022,0.0772 -0.0882,0.22048 l -0.0661,0.11024 -0.0662,0.1323 q -0.0331,0.0772 -0.12127,0.25356 l -0.0661,0.14331 -0.0772,0.15434 q -0.17639,0.38585 -0.28664,0.71658 -0.11024,0.34176 -0.11024,0.60634 0,0.11024 0.022,0.20946 0.0441,0.17639 0.17639,0.27561 0.12127,0.0882 0.34175,0.0882 0.50712,-0.011 1.11346,-0.29765 0.47404,-0.22049 1.06936,-0.63941 0.38585,-0.26459 1.01423,-0.7717 l 0.50712,-0.4079 z"
           id="path10158" />
      </g>
    </g>
  </g>
</svg>
