<?xml version="1.0" encoding="UTF-8" standalone="no"?>
<!-- Created with Inkscape (http://www.inkscape.org/) -->

<svg
   width="113.02268mm"
   height="14.483183mm"
   viewBox="0 0 113.02268 14.483183"
   version="1.1"
   id="svg5461"
   inkscape:version="1.2.1 (9c6d41e, 2022-07-14)"
   sodipodi:docname="weddin-day-banner.svg"
   xmlns:inkscape="http://www.inkscape.org/namespaces/inkscape"
   xmlns:sodipodi="http://sodipodi.sourceforge.net/DTD/sodipodi-0.dtd"
   xmlns="http://www.w3.org/2000/svg"
   xmlns:svg="http://www.w3.org/2000/svg">
  <sodipodi:namedview
     id="namedview5463"
     pagecolor="#ffffff"
     bordercolor="#000000"
     borderopacity="0.25"
     inkscape:showpageshadow="2"
     inkscape:pageopacity="0.0"
     inkscape:pagecheckerboard="0"
     inkscape:deskcolor="#d1d1d1"
     inkscape:document-units="mm"
     showgrid="false"
     inkscape:zoom="0.71983174"
     inkscape:cx="180.59776"
     inkscape:cy="-58.346969"
     inkscape:window-width="1309"
     inkscape:window-height="456"
     inkscape:window-x="0"
     inkscape:window-y="38"
     inkscape:window-maximized="0"
     inkscape:current-layer="layer1" />
  <defs
     id="defs5458">
    <clipPath
       id="b154fbedad">
      <path
         d="m 189,699.34375 h 321 v 41.25 H 189 Z m 0,0"
         clip-rule="nonzero"
         id="path5127" />
    </clipPath>
  </defs>
  <g
     inkscape:label="Layer 1"
     inkscape:groupmode="layer"
     id="layer1"
     transform="translate(-48.571285,-141.25841)">
    <g
       clip-path="url(#b154fbedad)"
       id="g5267"
       transform="matrix(0.3527778,0,0,0.3527778,-18.127051,-105.52344)">
      <path
         fill="#231f20"
         d="m 319.55469,703.65625 c 2.21875,-3.14453 2.57031,-3.49609 2.10156,-3.96094 -0.34766,-0.35156 -0.81641,0 -1.05078,0 -1.51563,0.92969 -4.89844,5.70703 -8.75,11.30078 -3.5,5.01172 -8.8711,12.70313 -10.26953,13.05078 0,-0.11328 -0.11719,-0.34765 0,-0.8125 1.39843,-7.46093 3.5,-9.67187 5.01953,-10.37109 1.51562,-0.58594 2.68359,0.23047 2.79687,0.34766 0.23438,0.11718 0.58594,0.11718 0.70313,-0.11719 0.23047,-0.23047 0.11719,-0.58203 -0.11719,-0.69922 -0.11719,0 -1.75,-1.28125 -3.73437,-0.46484 -1.28516,0.58203 -2.44922,1.74609 -3.38282,3.61328 -0.11718,0 -0.11718,0.11719 -0.23437,0.11719 -2.80078,2.91015 -9.10156,6.05859 -12.3711,4.07812 -0.34765,-0.23437 -0.58203,-0.46875 -0.69921,-0.69922 0.11718,0 0.23437,0 0.35156,0 1.16406,-0.58203 6.76562,-3.73047 6.64844,-5.94531 0,-0.34766 -0.23047,-0.92969 -1.16407,-1.28125 -2.45312,-0.92969 -5.2539,1.16406 -6.53515,3.61328 -3.5,0.81641 -5.25,0.23438 -5.95313,-0.35156 0.23438,-1.04688 0.23438,-1.98047 -0.34765,-2.32813 -0.35157,-0.23437 -0.81641,-0.23437 -1.05079,0.11719 -0.46875,0.46484 -0.58593,1.39844 -0.11718,2.09766 0.11718,0.11328 0.23437,0.34765 0.35156,0.46484 -0.46875,1.51563 -1.28516,3.72656 -2.57031,5.35938 -0.81641,1.16406 -1.63282,1.63281 -2.21485,1.51562 -0.11718,0 -0.23437,0 -0.23437,-0.23437 -0.69922,-1.04688 -0.11719,-4.89454 0.35156,-6.99219 0.11719,-0.23047 -0.11719,-0.46485 -0.23437,-0.58203 -0.23438,-0.11719 -0.46875,0 -0.69922,0.23437 -2.21875,3.37891 -6.53516,8.50781 -8.40235,7.45703 -0.35156,-0.11718 -0.46875,-0.34765 -0.46875,-0.58203 -0.23047,-1.16406 0.9336,-3.3789 2.33594,-5.47656 0,0 0.11719,-0.11719 0.11719,-0.11719 1.05078,-1.51562 2.21484,-3.03125 2.91797,-3.84375 0.23047,-0.23437 0.11328,-0.58203 0,-0.69922 -0.11719,-0.11718 -0.58594,-0.11718 -0.70313,0 -0.23047,0.34766 -1.63281,1.98047 -3.03125,3.84375 -1.40234,0.69922 -13.53906,5.94141 -31.15625,-1.63281 -19.14062,-8.15625 -47.96094,1.39844 -48.3125,1.51563 -0.23437,0.11718 -0.46484,0.35156 -0.34765,0.69921 0.11328,0.35157 0.34765,0.46875 0.69921,0.35157 0.23438,-0.11719 28.82032,-9.55469 47.49219,-1.51563 7.23438,3.14453 13.65235,4.07813 18.78906,4.07813 5.59766,0 9.6836,-1.16407 11.78516,-1.98047 -1.05078,1.74609 -1.86719,3.61328 -1.63281,4.89453 0.11328,0.58203 0.46484,1.04687 0.92969,1.28125 2.57031,1.39844 6.30468,-3.03125 8.40234,-5.82813 -0.23047,1.86719 -0.46484,4.19532 0.23437,5.36329 0.23438,0.34765 0.58204,0.58203 0.9336,0.69921 0.11719,0 0.23437,0 0.35156,0 1.98438,0 3.84766,-2.91406 4.89844,-5.82812 0.11719,-0.34766 0.35156,-0.93359 0.46875,-1.51563 1.05078,0.58204 2.80078,0.9336 5.83203,0.35157 -0.58203,1.74609 -0.11328,3.26172 1.28516,4.07812 0.93359,0.58203 1.98437,0.81641 3.15234,0.81641 3.14844,0 6.76562,-1.86719 9.10156,-3.73047 -0.58594,1.51562 -1.05078,3.26172 -1.40234,5.35937 0,0.46875 -0.11719,1.63282 0.70312,1.98047 0.11328,0 0.23047,0 0.23047,0 1.63281,0 4.78516,-4.30859 11.20313,-13.51562 0.8164,-1.16406 1.63281,-2.33203 2.33203,-3.37891 -3.5,5.24219 -7,11.53516 -6.53125,15.96485 0,0.23046 0.23047,0.46484 0.58203,0.46484 0.35156,0 0.46484,-0.23438 0.46484,-0.58203 -0.46484,-5.24219 6.65235,-15.26563 10.15235,-20.04297 z m -30.33985,14.44922 c -0.11328,-0.9336 0.35157,-1.86328 0.46875,-2.21485 0.9336,-1.74609 2.6836,-3.3789 4.4336,-3.3789 0.23437,0 0.58203,0 0.8164,0.11719 0.35157,0.11718 0.46875,0.23437 0.46875,0.34765 0.11719,1.16797 -3.03515,3.4961 -6.1875,5.12891 0.11719,0 0.11719,0 0,0 z m 42.24219,-14.44922 c 2.21875,-3.14453 2.57031,-3.49609 2.10156,-3.96094 -0.34765,-0.35156 -0.8164,0 -1.05078,0 -1.51562,0.92969 -4.89844,5.70703 -8.75,11.30078 -3.5,5.01172 -8.86719,12.70313 -10.26953,13.05078 0,-0.11328 -0.11719,-0.34765 0,-0.8125 1.39844,-7.46093 3.5,-9.67187 5.01953,-10.37109 1.51563,-0.58594 2.6836,0.23047 2.80078,0.34766 0.23047,0.11718 0.58203,0.11718 0.69922,-0.11719 0.23047,-0.23047 0.11719,-0.58203 -0.11719,-0.69922 -0.11718,0 -1.75,-1.28125 -3.73437,-0.46484 -2.56641,1.04687 -4.55078,4.77734 -5.71875,11.1875 0,0.46484 -0.11719,1.6289 0.69922,1.98047 0.11719,0 0.23437,0 0.23437,0 1.63282,0 4.78516,-4.3125 11.20313,-13.51563 0.8164,-1.16797 1.63281,-2.33203 2.33203,-3.38281 -3.5,5.24609 -7,11.53906 -6.53125,15.96484 0,0.23438 0.23047,0.46875 0.58203,0.46875 0.35156,0 0.46484,-0.23437 0.46484,-0.58594 -0.58203,-5.58984 6.65235,-15.61328 10.03516,-20.39062 z m -0.69922,5.94141 -1.28125,1.75 c -0.11719,0.23437 -0.11719,0.58203 0.11328,0.69921 0.11719,0.11719 0.23438,0.11719 0.35157,0.11719 0.11718,0 0.35156,-0.11719 0.46875,-0.23437 l 1.28125,-1.7461 c 0.11718,-0.23437 0.11718,-0.58593 -0.11719,-0.69922 -0.34766,-0.11718 -0.69922,0 -0.81641,0.11329 z m 36.75781,5.71093 c -1.51562,1.05078 -4.89843,3.26172 -8.98437,5.94141 1.39844,-4.77734 1.86719,-8.62109 1.98437,-9.08594 0,-0.23437 -0.11718,-0.46875 -0.35156,-0.58203 -0.23437,-0.11719 -0.46484,0 -0.58203,0.23047 -3.96875,5.59375 -8.28516,10.13672 -9.10156,9.90625 0,0 -0.35156,-0.35156 0.23047,-2.67969 0.82031,-3.26562 2.21875,-5.59375 4.32031,-6.875 2.68359,-1.63281 5.60156,-0.93359 5.60156,-0.93359 0.23047,0.11719 0.58203,-0.11719 0.58203,-0.34766 0.11719,-0.23437 -0.11718,-0.58594 -0.35156,-0.58594 -0.11328,0 -3.26562,-0.8125 -6.30078,1.05079 -1.51563,0.92968 -2.68359,2.32812 -3.61719,4.07812 -0.11719,0 -0.11719,0.11719 -0.23437,0.23438 -0.23047,0.34765 -2.33203,2.79687 -8.28516,5.24218 0.11719,-0.58203 0.46875,-1.63281 0.70313,-2.5625 0.69921,-1.98047 1.28125,-4.07812 0.69921,-5.1289 -0.11718,-0.23438 -0.35156,-0.46485 -0.69921,-0.58203 -1.98438,-0.58204 -4.4336,1.28125 -6.53516,3.61328 l 0.11719,-0.11719 c 1.16406,-2.33203 2.33203,-4.66016 2.44922,-4.77734 0.11718,-0.23438 0,-0.58204 -0.23438,-0.69922 -0.23047,-0.11719 -0.58203,0 -0.69922,0.23437 0,0 -1.16797,2.21094 -2.33203,4.66016 -8.75391,6.05859 -10.03516,5.35937 -10.15234,5.24219 -0.46875,-0.46485 1.05078,-3.4961 3.14843,-6.17579 0.11719,-0.23437 0.11719,-0.58203 -0.11718,-0.69921 -0.23047,-0.23438 -0.58203,-0.11719 -0.69922,0.11718 -1.39844,1.7461 -4.4336,6.17578 -3.03516,7.57422 0.23438,0.23438 0.58594,0.34766 1.05078,0.34766 1.28516,0 3.61719,-0.92969 8.75391,-4.42578 -0.81641,1.6289 -1.63281,3.02734 -1.98438,3.72656 0,0 0,0 0,0.11719 -0.11718,0.35156 -0.11718,0.58203 0.11719,0.69922 0.11719,0 0.11719,0.11718 0.23438,0.11718 0.11328,0 0.34765,-0.11718 0.46484,-0.34765 2.80078,-4.19532 6.88672,-8.85938 9.10156,-8.16016 0,0 0.11719,0 0.11719,0.11719 0.35156,0.69922 -0.35156,2.91406 -0.81641,4.3125 -0.69921,2.21484 -1.05078,3.26172 -0.46875,3.73047 0.11719,0.11328 0.46875,0.34765 1.05079,0.11328 3.73437,-1.51172 6.07031,-3.02735 7.35156,-4.19141 -0.11719,0.34766 -0.23438,0.69922 -0.34766,1.04688 -0.58594,2.33203 -0.46875,3.49609 0.34766,3.84375 1.75,0.8164 6.30078,-4.77735 9.10156,-8.50391 -0.34766,1.86328 -0.93359,4.89453 -2.09766,8.15625 -8.98828,6.17578 -19.95703,14.44922 -19.02343,17.24609 0.35156,0.92969 1.40234,1.04688 2.21875,1.04688 0.23437,0 0.46484,0 0.58203,0 9.57031,-0.58203 14.58594,-9.90234 17.15625,-17.59375 3.26562,-2.21484 6.64844,-4.42969 10.03515,-6.64063 0.23047,-0.11718 0.34766,-0.46875 0.11719,-0.69921 0,-0.35157 -0.35156,-0.46875 -0.58594,-0.35157 z m -26.60546,24.1211 c -1.16797,0.11718 -1.63282,-0.11719 -1.75,-0.34766 -0.58204,-1.63281 7.35156,-8.16016 17.38671,-15.14844 -2.5664,7.22266 -7.35156,15.03125 -15.63671,15.4961 z m 64.41406,-35.77344 c 2.21875,-3.14453 2.5664,-3.49609 2.10156,-3.96094 -0.35156,-0.35156 -0.81641,0 -1.05078,0 -1.51953,0.92969 -4.90234,5.70703 -8.75391,11.30078 -3.5,5.01172 -8.86718,12.70313 -10.26562,13.05078 0,-0.11328 -0.11719,-0.34765 0,-0.8125 1.28125,-7.46093 3.5,-9.67187 5.01562,-10.37109 1.51563,-0.58594 2.80078,0.23047 2.80078,0.34766 0.23438,0.11718 0.58204,0.11718 0.69922,-0.11719 0.11719,-0.23047 0.11719,-0.58203 -0.11718,-0.69922 -0.11329,0 -1.75,-1.28125 -3.73438,-0.46484 -2.56641,1.04687 -4.55078,4.77734 -5.71484,11.1875 0,0.46484 -0.11719,1.6289 0.69922,1.98047 0.11718,0 0.23437,0 0.23437,0 1.63281,0 4.78125,-4.3125 11.19922,-13.51563 0.82031,-1.16797 1.63672,-2.33203 2.33594,-3.38281 -3.5,5.24609 -7,11.53906 -6.53516,15.96484 0,0.23438 0.23438,0.46875 0.58203,0.46875 0.23438,0 0.46875,-0.23437 0.46875,-0.58594 -0.58203,-5.58984 6.65235,-15.61328 10.03516,-20.39062 z m 104.08984,19.46094 c -0.11719,-0.23438 -0.35156,-0.46875 -0.58594,-0.35157 -0.23437,0.11719 -29.28906,6.64454 -47.49218,-2.67968 -16.57032,-8.50391 -32.32422,-4.77735 -32.44141,-4.77735 -2.80078,0.35157 -5.60156,1.39844 -8.28516,2.5625 1.40235,-3.84375 2.21875,-6.875 2.33594,-7.22265 0.11719,-0.23438 -0.11719,-0.46485 -0.23437,-0.58203 -0.11719,-0.11719 -0.46485,0 -0.69922,0.23046 -3.26953,4.89454 -7.70313,9.67188 -8.98438,8.85547 -0.11718,0 -0.23437,-0.23047 -0.23437,-0.46484 -0.35156,-2.09766 3.73437,-7.69141 5.36719,-9.78906 0.11718,-0.23047 0.11718,-0.58203 -0.11719,-0.69922 -0.23438,-0.23047 -0.58203,-0.11328 -0.69922,0.11719 -0.46875,0.58203 -3.38281,4.19531 -4.78516,7.34375 -0.11718,0 -0.11718,0 -0.23437,0.11328 -4.78125,4.3125 -6.06641,3.96484 -6.30078,3.84765 -0.58203,-0.35156 -0.23438,-2.09765 0.11718,-3.14843 0.11719,-0.23047 0,-0.46485 -0.23437,-0.58204 -0.23047,-0.11718 -0.46484,0 -0.69922,0.11719 -2.21484,2.91406 -4.78516,5.35938 -5.36719,5.24219 0,0 -0.23437,-0.23047 0,-1.51172 0.35157,-2.09766 1.16797,-3.37891 2.33203,-4.07812 1.51954,-0.81641 3.15235,-0.23438 3.15235,-0.23438 0.23437,0.11719 0.58203,0 0.69922,-0.23437 0.11718,-0.23047 0,-0.58204 -0.23438,-0.69922 -0.11328,0 -2.09765,-0.81641 -4.08203,0.23437 -1.40234,0.81641 -2.44922,2.44531 -2.80078,4.77735 -0.11719,0.93359 -0.35156,2.21484 0.58203,2.5625 0.11719,0 0.23438,0.11718 0.35156,0.11718 1.28516,0 3.26563,-2.09765 4.90235,-3.96093 0,0.92968 0.11328,1.74609 0.8164,2.21484 1.16407,0.69922 3.14844,-0.23438 6.41797,-2.91406 -0.11719,0.46484 -0.11719,0.93359 -0.11719,1.39843 0.11719,0.46485 0.34766,0.92969 0.69922,1.16407 2.10157,1.28125 6.1836,-3.37891 8.63672,-6.64063 -0.46875,1.39844 -1.05078,3.14453 -1.75,5.125 -9.6875,5.01172 -17.73828,13.98438 -17.27344,17.59766 0.11719,0.69922 0.58594,1.86328 2.6836,1.86328 0.23437,0 0.58594,0 0.82031,0 6.53125,-0.81641 11.55078,-10.95313 14.58594,-18.64453 2.91797,-1.51563 6.0664,-2.5625 9.10156,-3.02735 0.11719,0 15.51953,-3.73046 31.73828,4.66016 18.4375,9.55469 47.84375,2.91406 48.19531,2.79688 0,-0.11719 0.23047,-0.35157 0.11719,-0.69922 z m -104.08984,13.86718 c -1.39844,0.23047 -2.21875,-0.11718 -2.33203,-0.8164 -0.46875,-3.14844 6.88281,-11.07031 15.63281,-15.96485 -2.91406,7.22266 -7.58203,16.08204 -13.30078,16.78125 z m 0,0"
         fill-opacity="1"
         fill-rule="nonzero"
         id="path5265" />
    </g>
  </g>
</svg>
